G04 #@! TF.GenerationSoftware,KiCad,Pcbnew,(5.0.0-rc2-dev-130-g0bdae22af-dirty)*
G04 #@! TF.CreationDate,2019-01-26T14:37:01+02:00*
G04 #@! TF.ProjectId,right_keypad,72696768745F6B65797061642E6B6963,rev?*
G04 #@! TF.SameCoordinates,Original*
G04 #@! TF.FileFunction,Paste,Top*
G04 #@! TF.FilePolarity,Positive*
%FSLAX46Y46*%
G04 Gerber Fmt 4.6, Leading zero omitted, Abs format (unit mm)*
G04 Created by KiCad (PCBNEW (5.0.0-rc2-dev-130-g0bdae22af-dirty)) date Sat Jan 26 14:37:01 2019*
%MOMM*%
%LPD*%
G01*
G04 APERTURE LIST*
%ADD10R,0.939800X0.762000*%
%ADD11R,0.998220X3.997960*%
%ADD12R,0.762000X0.939800*%
%ADD13R,2.179320X1.617980*%
%ADD14R,1.297940X1.399540*%
%ADD15R,2.999740X2.799080*%
%ADD16R,1.524000X0.635000*%
%ADD17O,1.524000X0.635000*%
%ADD18R,0.279400X1.244600*%
%ADD19O,0.279400X1.244600*%
%ADD20O,1.244600X0.279400*%
%ADD21R,0.647700X1.049020*%
%ADD22R,1.699260X2.397760*%
%ADD23R,1.899920X0.998220*%
G04 APERTURE END LIST*
D10*
X118694200Y-74739500D03*
X118694200Y-76415900D03*
D11*
X124561600Y-80408780D03*
X124561600Y-73312020D03*
D10*
X76009500Y-77190600D03*
X76009500Y-75514200D03*
D12*
X69456300Y-64490600D03*
X71132700Y-64490600D03*
X67081400Y-64490600D03*
X65405000Y-64490600D03*
X112649000Y-71894700D03*
X114325400Y-71894700D03*
X64389000Y-70916800D03*
X62712600Y-70916800D03*
D10*
X72796400Y-76987400D03*
X72796400Y-78663800D03*
D11*
X90576400Y-75430380D03*
X90576400Y-68333620D03*
D12*
X80987900Y-69532500D03*
X82664300Y-69532500D03*
D13*
X101193600Y-97256600D03*
X101193600Y-101854000D03*
D10*
X58318400Y-80429100D03*
X58318400Y-78752700D03*
D14*
X119634000Y-71767700D03*
X116103400Y-71767700D03*
D10*
X63093600Y-62471300D03*
X63093600Y-64147700D03*
D14*
X59575700Y-109626400D03*
X56045100Y-109626400D03*
X59575700Y-107391200D03*
X56045100Y-107391200D03*
X59575700Y-111912400D03*
X56045100Y-111912400D03*
D15*
X107612180Y-72694800D03*
X97315020Y-72694800D03*
D10*
X58318400Y-77190600D03*
X58318400Y-75514200D03*
X63093600Y-65709800D03*
X63093600Y-67386200D03*
X61937900Y-98831400D03*
X61937900Y-100507800D03*
X60159900Y-98831400D03*
X60159900Y-100507800D03*
X63754000Y-98793300D03*
X63754000Y-100469700D03*
X61925200Y-104317800D03*
X61925200Y-102641400D03*
X60147200Y-104317800D03*
X60147200Y-102641400D03*
X63754000Y-104317800D03*
X63754000Y-102641400D03*
D16*
X78036007Y-74323645D03*
D17*
X78036007Y-75593645D03*
X78036007Y-76863645D03*
X78036007Y-78133645D03*
X83878007Y-78133645D03*
X83878007Y-76863645D03*
X83878007Y-75593645D03*
X83878007Y-74323645D03*
D18*
X68966080Y-73400920D03*
D19*
X68465700Y-73400920D03*
X67965320Y-73400920D03*
X67467480Y-73400920D03*
X66967100Y-73400920D03*
X66466720Y-73400920D03*
X65968880Y-73400920D03*
X65468500Y-73400920D03*
X64968120Y-73400920D03*
X64470280Y-73400920D03*
X63969900Y-73400920D03*
X63469520Y-73400920D03*
D20*
X61671200Y-75199240D03*
X61671200Y-75699620D03*
X61671200Y-76200000D03*
X61671200Y-76697840D03*
X61671200Y-77198220D03*
X61671200Y-77698600D03*
X61671200Y-78196440D03*
X61671200Y-78696820D03*
X61671200Y-79197200D03*
X61671200Y-79695040D03*
X61671200Y-80195420D03*
X61671200Y-80695800D03*
D19*
X63469520Y-82494120D03*
X63969900Y-82494120D03*
X64470280Y-82494120D03*
X64968120Y-82494120D03*
X65468500Y-82494120D03*
X65968880Y-82494120D03*
X66466720Y-82494120D03*
X66967100Y-82494120D03*
X67467480Y-82494120D03*
X67965320Y-82494120D03*
X68465700Y-82494120D03*
X68966080Y-82494120D03*
D20*
X70764400Y-80695800D03*
X70764400Y-80195420D03*
X70764400Y-79695040D03*
X70764400Y-79197200D03*
X70764400Y-78696820D03*
X70764400Y-78196440D03*
X70764400Y-77698600D03*
X70764400Y-77198220D03*
X70764400Y-76697840D03*
X70764400Y-76200000D03*
X70764400Y-75699620D03*
X70764400Y-75199240D03*
D16*
X110759650Y-73594445D03*
D17*
X110759650Y-74864445D03*
X110759650Y-76134445D03*
X110759650Y-77404445D03*
X116601650Y-77404445D03*
X116601650Y-76134445D03*
X116601650Y-74864445D03*
X116601650Y-73594445D03*
D21*
X80771951Y-67661190D03*
X82671871Y-67661190D03*
X81721911Y-65365030D03*
D22*
X70815200Y-67538600D03*
X65735200Y-67538600D03*
D23*
X96824800Y-97790000D03*
X96824800Y-100787200D03*
M02*
