  0
SECTION
  2
HEADER
  9
$ACADVER
  1
AC1009
  9
$INSBASE
 10
0.0
 20
0.0
 30
0.0
  9
$EXTMIN
 10
0.0
 20
0.0
 30
0.0
  9
$EXTMAX
 10
0.0
 20
0.0
 30
0.0
  0
ENDSEC
  0
SECTION
  2
TABLES
  0
TABLE
  2
VPORT
 70
0
  0
ENDTAB
  0
TABLE
  2
LTYPE
 70
1
  0
LTYPE
  2
CONTINUOUS
 70
0
  3
Solid line
 72
65
 73
0
 40
0.0
  0
ENDTAB
  0
TABLE
  2
LAYER
 70
1
  0
LAYER
  2
0
 70
64
 62
7
  6
continuous
  0
ENDTAB
  0
TABLE
  2
STYLE
 70
1
  0
STYLE
  2
STANDARD
 70
0
 40
0
 41
1.0
 50
0.0
 71
0
 42
1
 3
ARIAL.TTF
 4

  0
ENDTAB
  0
TABLE
  2
VIEW
 70
0
  0
ENDTAB
  0
ENDSEC
  0
SECTION
  2
BLOCKS
  0
BLOCK
  8
0
  2
UNFOLD
 70
0
 10
0.0
 20
0.0
 30
0.0
  3
UNFOLD
  0
LINE
  8
0
 62
0
 10
-170.231990688
 20
-28.861185575
 30
0.0
 11
-161.549581805
 21
20.3792020757
 31
0.0
  0
ARC
  8
0
 62
0
 10
-171.397659335
 20
22.1156838523
 30
0.0
 40
10.0
 50
-10.0
 51
80.0
  0
LINE
  8
0
 62
0
 10
-170.231990688
 20
-28.861185575
 30
0.0
 11
-244.092572164
 21
-15.8375722499
 31
0.0
  0
LINE
  8
0
 62
0
 10
-169.661177558
 20
31.9637613824
 30
0.0
 11
-223.825603974
 21
41.5144111542
 31
0.0
  0
LINE
  8
0
 62
0
 10
-244.092572164
 20
-15.8375722499
 30
0.0
 11
-235.410163281
 21
33.4028154007
 31
0.0
  0
ARC
  8
0
 62
0
 10
-225.562085751
 20
31.666333624
 30
0.0
 40
10.0
 50
80.0
 51
170.0
  0
ARC
  8
0
 62
0
 10
-174.821677712
 20
17.0940368869
 30
0.0
 40
4.5
 50
-100.0
 51
80.0
  0
LINE
  8
0
 62
0
 10
-174.040260913
 20
21.5256717754
 30
0.0
 11
-223.280648564
 21
30.2080806588
 31
0.0
  0
ARC
  8
0
 62
0
 10
-224.062065363
 20
25.7764457702
 30
0.0
 40
4.5
 50
80.0
 51
-100.0
  0
LINE
  8
0
 62
0
 10
-175.603094512
 20
12.6624019983
 30
0.0
 11
-224.843482163
 21
21.3448108817
 31
0.0
  0
LINE
  8
0
 62
0
 10
-182.574879338
 20
-98.861185575
 30
0.0
 11
-246.587383284
 21
-87.5740540266
 31
0.0
  0
ARC
  8
0
 62
0
 10
-244.850901507
 20
-77.7259764965
 30
0.0
 40
10.0
 50
170.0
 51
-100.0
  0
LINE
  8
0
 62
0
 10
-182.574879338
 20
-98.861185575
 30
0.0
 11
-170.231990688
 21
-28.861185575
 31
0.0
  0
LINE
  8
0
 62
0
 10
-254.698979037
 20
-75.9894947198
 30
0.0
 11
-244.092572164
 21
-15.8375722499
 31
0.0
  0
LINE
  8
0
 62
0
 10
-192.967912279
 20
-85.8183733029
 30
0.0
 11
-242.208299929
 21
-77.1359644195
 31
0.0
  0
ARC
  8
0
 62
0
 10
-241.42688313
 20
-72.704329531
 30
0.0
 40
4.5
 50
80.0
 51
-100.0
  0
LINE
  8
0
 62
0
 10
-191.40507868
 20
-76.9551035258
 30
0.0
 11
-240.64546633
 21
-68.2726946424
 31
0.0
  0
ARC
  8
0
 62
0
 10
-192.186495479
 20
-81.3867384144
 30
0.0
 40
4.5
 50
-100.0
 51
80.0
  0
LINE
  8
0
 62
0
 10
-176.116341793
 20
-100.0
 30
0.0
 11
-163.773453144
 21
-30.0
 31
0.0
  0
LINE
  8
0
 62
0
 10
-176.116341793
 20
-100.0
 30
0.0
 11
-182.574879338
 21
-98.861185575
 31
0.0
  0
LINE
  8
0
 62
0
 10
-163.773453144
 20
-30.0
 30
0.0
 11
-170.231990688
 21
-28.861185575
 31
0.0
  0
LINE
  8
0
 62
0
 10
-138.116341793
 20
-100.0
 30
0.0
 11
-138.116341793
 21
-30.0
 31
0.0
  0
LINE
  8
0
 62
0
 10
-138.116341793
 20
-30.0
 30
0.0
 11
-163.773453144
 21
-30.0
 31
0.0
  0
LINE
  8
0
 62
0
 10
-138.116341793
 20
-100.0
 30
0.0
 11
-176.116341793
 21
-100.0
 31
0.0
  0
LINE
  8
0
 62
0
 10
-131.558170897
 20
-100.0
 30
0.0
 11
-131.558170897
 21
-30.0
 31
0.0
  0
LINE
  8
0
 62
0
 10
-131.558170897
 20
-100.0
 30
0.0
 11
-138.116341793
 21
-100.0
 31
0.0
  0
LINE
  8
0
 62
0
 10
-131.558170897
 20
-30.0
 30
0.0
 11
-138.116341793
 21
-30.0
 31
0.0
  0
LINE
  8
0
 62
0
 10
-108.558170897
 20
-100.0
 30
0.0
 11
-131.558170897
 21
-100.0
 31
0.0
  0
LINE
  8
0
 62
0
 10
-108.558170897
 20
-100.0
 30
0.0
 11
-108.558170897
 21
-30.0
 31
0.0
  0
LINE
  8
0
 62
0
 10
-108.558170897
 20
-30.0
 30
0.0
 11
-131.558170897
 21
-30.0
 31
0.0
  0
ARC
  8
0
 62
0
 10
-116.558170897
 20
-45.0
 30
0.0
 40
2.75
 50
-90.0
 51
90.0
  0
LINE
  8
0
 62
0
 10
-116.558170897
 20
-47.75
 30
0.0
 11
-120.558170897
 21
-47.75
 31
0.0
  0
ARC
  8
0
 62
0
 10
-120.558170897
 20
-45.0
 30
0.0
 40
2.75
 50
90.0
 51
-90.0
  0
LINE
  8
0
 62
0
 10
-116.558170897
 20
-42.25
 30
0.0
 11
-120.558170897
 21
-42.25
 31
0.0
  0
ARC
  8
0
 62
0
 10
-116.558170897
 20
-85.0
 30
0.0
 40
2.75
 50
-90.0
 51
90.0
  0
LINE
  8
0
 62
0
 10
-116.558170897
 20
-87.75
 30
0.0
 11
-120.558170897
 21
-87.75
 31
0.0
  0
ARC
  8
0
 62
0
 10
-120.558170897
 20
-85.0
 30
0.0
 40
2.75
 50
90.0
 51
-90.0
  0
LINE
  8
0
 62
0
 10
-116.558170897
 20
-82.25
 30
0.0
 11
-120.558170897
 21
-82.25
 31
0.0
  0
LINE
  8
0
 62
0
 10
-102.0
 20
-100.0
 30
0.0
 11
-102.0
 21
-30.0
 31
0.0
  0
LINE
  8
0
 62
0
 10
-102.0
 20
-100.0
 30
0.0
 11
-108.558170897
 21
-100.0
 31
0.0
  0
LINE
  8
0
 62
0
 10
-102.0
 20
-30.0
 30
0.0
 11
-108.558170897
 21
-30.0
 31
0.0
  0
ARC
  8
0
 62
0
 10
1.7763568394e-15
 20
2.6645352591e-15
 30
0.0
 40
35.0
 50
-24.9849309732
 51
155.015147376
  0
ARC
  8
0
 62
0
 10
-102.0
 20
47.5307692308
 30
0.0
 40
147.530769231
 50
-90.0
 51
-24.9849463669
  0
ARC
  8
0
 62
0
 10
-102.0
 20
47.5307692308
 30
0.0
 40
77.5307692308
 50
-90.0
 51
-24.9849956349
  0
CIRCLE
  8
0
 62
0
 10
-19.5
 20
-19.5
 30
0.0
 40
2.5
  0
CIRCLE
  8
0
 62
0
 10
0.0
 20
0.0
 30
0.0
 40
23.0
  0
CIRCLE
  8
0
 62
0
 10
19.5
 20
-19.5
 30
0.0
 40
2.5
  0
CIRCLE
  8
0
 62
0
 10
19.5
 20
19.5
 30
0.0
 40
2.5
  0
CIRCLE
  8
0
 62
0
 10
-19.5
 20
19.5
 30
0.0
 40
2.5
  0
ENDBLK
  0
ENDSEC
  0
SECTION
  2
ENTITIES
  0
INSERT
  2
UNFOLD
  8
0
 62
0
 10
0.0
 20
0.0
 30
0.0
  0
ENDSEC
  0
EOF
