G04 #@! TF.FileFunction,Soldermask,Top*
%FSLAX46Y46*%
G04 Gerber Fmt 4.6, Leading zero omitted, Abs format (unit mm)*
G04 Created by KiCad (PCBNEW (2016-07-28 BZR 6996, Git e15ad93)-product) date Thu Oct 20 17:42:39 2016*
%MOMM*%
%LPD*%
G01*
G04 APERTURE LIST*
%ADD10C,0.100000*%
%ADD11R,1.162000X1.339800*%
%ADD12R,1.398220X4.397960*%
%ADD13R,1.339800X1.162000*%
%ADD14R,2.017980X2.579320*%
%ADD15R,1.799540X1.697940*%
%ADD16R,1.697940X1.799540*%
%ADD17R,2.299920X1.398220*%
%ADD18R,3.023820X3.023820*%
%ADD19C,3.023820*%
%ADD20C,3.399740*%
%ADD21R,2.178000X2.178000*%
%ADD22C,2.178000*%
%ADD23C,1.418540*%
%ADD24R,3.399740X3.199080*%
%ADD25R,2.498040X2.498040*%
%ADD26C,2.498040*%
%ADD27C,2.198320*%
%ADD28R,1.924000X1.035000*%
%ADD29O,1.924000X1.035000*%
%ADD30R,0.679400X1.644600*%
%ADD31O,0.679400X1.644600*%
%ADD32O,1.644600X0.679400*%
%ADD33R,1.035000X1.924000*%
%ADD34O,1.035000X1.924000*%
%ADD35R,1.047700X1.449020*%
%ADD36R,2.099260X2.797760*%
%ADD37R,1.924000X1.924000*%
%ADD38C,1.924000*%
%ADD39C,4.900000*%
G04 APERTURE END LIST*
D10*
D11*
X84251800Y-85090000D03*
X85928200Y-85090000D03*
D12*
X75374500Y-88630760D03*
X75374500Y-81534000D03*
D13*
X121920000Y-80949800D03*
X121920000Y-82626200D03*
D11*
X132003800Y-70104000D03*
X133680200Y-70104000D03*
X130378200Y-70104000D03*
X128701800Y-70104000D03*
X86474300Y-77470000D03*
X88150700Y-77470000D03*
D13*
X117348000Y-75260200D03*
X117348000Y-73583800D03*
D11*
X136829800Y-81534000D03*
X138506200Y-81534000D03*
D12*
X107188000Y-82788760D03*
X107188000Y-75692000D03*
D11*
X128193800Y-75946000D03*
X129870200Y-75946000D03*
D14*
X86093300Y-90424000D03*
X90690700Y-90424000D03*
D11*
X125044200Y-74930000D03*
X123367800Y-74930000D03*
D15*
X88963500Y-87045800D03*
X88963500Y-83515200D03*
D11*
X122511635Y-70426340D03*
X120835235Y-70426340D03*
D16*
X134226300Y-105473500D03*
X130695700Y-105473500D03*
X134198465Y-107251500D03*
X130667865Y-107251500D03*
X134226300Y-109156500D03*
X130695700Y-109156500D03*
D17*
X90170000Y-98018600D03*
X90170000Y-95021400D03*
D18*
X94554040Y-98739960D03*
D19*
X98552000Y-98739960D03*
X102549960Y-98739960D03*
X96553020Y-94742000D03*
X100550980Y-94742000D03*
X94554040Y-90744040D03*
X98552000Y-90744040D03*
X102549960Y-90744040D03*
D20*
X84853780Y-105539540D03*
X112250220Y-105539540D03*
X113751360Y-87442040D03*
X83352640Y-87442040D03*
D21*
X120439180Y-139951460D03*
D22*
X117441980Y-139951460D03*
X114444780Y-139951460D03*
X111447580Y-139951460D03*
X108450380Y-139951460D03*
X120439180Y-142948660D03*
X117441980Y-142948660D03*
X114444780Y-142948660D03*
X111447580Y-142948660D03*
X108450380Y-142948660D03*
D23*
X123444000Y-143891000D03*
X105445560Y-143891000D03*
D24*
X89916000Y-80010000D03*
X100213160Y-80010000D03*
D11*
X123367800Y-76708000D03*
X125044200Y-76708000D03*
X120827800Y-72136000D03*
X122504200Y-72136000D03*
D13*
X138049000Y-104444800D03*
X138049000Y-106121200D03*
X136271000Y-104508300D03*
X136271000Y-106184700D03*
X139827000Y-104444800D03*
X139827000Y-106121200D03*
X138049000Y-109753400D03*
X138049000Y-108077000D03*
X136271000Y-109740700D03*
X136271000Y-108064300D03*
X139827000Y-109753400D03*
X139827000Y-108077000D03*
D25*
X106248200Y-129199640D03*
D26*
X118745000Y-129199640D03*
X106248200Y-134198360D03*
X118745000Y-134198360D03*
D27*
X112496600Y-127200660D03*
X112496600Y-136197340D03*
D25*
X124155200Y-131145280D03*
D26*
X136652000Y-131145280D03*
X124155200Y-136144000D03*
X136652000Y-136144000D03*
D27*
X130403600Y-129146300D03*
X130403600Y-138142980D03*
D25*
X106273600Y-114025680D03*
D26*
X118770400Y-114025680D03*
X106273600Y-119024400D03*
X118770400Y-119024400D03*
D27*
X112522000Y-112026700D03*
X112522000Y-121023380D03*
D25*
X124155200Y-115963700D03*
D26*
X136652000Y-115963700D03*
X124155200Y-120962420D03*
X136652000Y-120962420D03*
D27*
X130403600Y-113964720D03*
X130403600Y-122961400D03*
D25*
X49504600Y-133908800D03*
D26*
X62001400Y-133908800D03*
X49504600Y-138907520D03*
X62001400Y-138907520D03*
D27*
X55753000Y-131909820D03*
X55753000Y-140906500D03*
D25*
X67691000Y-132080000D03*
D26*
X80187800Y-132080000D03*
X67691000Y-137078720D03*
X80187800Y-137078720D03*
D27*
X73939400Y-130081020D03*
X73939400Y-139077700D03*
D25*
X85699600Y-130421380D03*
D26*
X98196400Y-130421380D03*
X85699600Y-135420100D03*
X98196400Y-135420100D03*
D27*
X91948000Y-128422400D03*
X91948000Y-137419080D03*
D25*
X49504600Y-118394480D03*
D26*
X62001400Y-118394480D03*
X49504600Y-123393200D03*
X62001400Y-123393200D03*
D27*
X55753000Y-116395500D03*
X55753000Y-125392180D03*
D25*
X67691000Y-116565680D03*
D26*
X80187800Y-116565680D03*
X67691000Y-121564400D03*
X80187800Y-121564400D03*
D27*
X73939400Y-114566700D03*
X73939400Y-123563380D03*
D25*
X85699600Y-114896900D03*
D26*
X98196400Y-114896900D03*
X85699600Y-119895620D03*
X98196400Y-119895620D03*
D27*
X91948000Y-112897920D03*
X91948000Y-121894600D03*
D25*
X51409600Y-98084640D03*
D26*
X63906400Y-98084640D03*
X51409600Y-103083360D03*
X63906400Y-103083360D03*
D27*
X57658000Y-96085660D03*
X57658000Y-105082340D03*
D25*
X73660000Y-95250000D03*
D26*
X86156800Y-95250000D03*
X73660000Y-100248720D03*
X86156800Y-100248720D03*
D27*
X79908400Y-93251020D03*
X79908400Y-102247700D03*
D25*
X126441200Y-93726000D03*
D26*
X138938000Y-93726000D03*
X126441200Y-98724720D03*
X138938000Y-98724720D03*
D27*
X132689600Y-91727020D03*
X132689600Y-100723700D03*
D25*
X108915200Y-93726000D03*
D26*
X121412000Y-93726000D03*
X108915200Y-98724720D03*
X121412000Y-98724720D03*
D27*
X115163600Y-91727020D03*
X115163600Y-100723700D03*
D28*
X119380000Y-83566000D03*
D29*
X119380000Y-82296000D03*
X119380000Y-81026000D03*
X119380000Y-79756000D03*
X113538000Y-79756000D03*
X113538000Y-81026000D03*
X113538000Y-82296000D03*
X113538000Y-83566000D03*
D30*
X133558280Y-77749400D03*
D31*
X133057900Y-77749400D03*
X132557520Y-77749400D03*
X132059680Y-77749400D03*
X131559300Y-77749400D03*
X131058920Y-77749400D03*
X130561080Y-77749400D03*
X130060700Y-77749400D03*
X129560320Y-77749400D03*
X129062480Y-77749400D03*
X128562100Y-77749400D03*
X128061720Y-77749400D03*
D32*
X126263400Y-79547720D03*
X126263400Y-80048100D03*
X126263400Y-80548480D03*
X126263400Y-81046320D03*
X126263400Y-81546700D03*
X126263400Y-82047080D03*
X126263400Y-82544920D03*
X126263400Y-83045300D03*
X126263400Y-83545680D03*
X126263400Y-84043520D03*
X126263400Y-84543900D03*
X126263400Y-85044280D03*
D31*
X128061720Y-86842600D03*
X128562100Y-86842600D03*
X129062480Y-86842600D03*
X129560320Y-86842600D03*
X130060700Y-86842600D03*
X130561080Y-86842600D03*
X131058920Y-86842600D03*
X131559300Y-86842600D03*
X132059680Y-86842600D03*
X132557520Y-86842600D03*
X133057900Y-86842600D03*
X133558280Y-86842600D03*
D32*
X135356600Y-85044280D03*
X135356600Y-84543900D03*
X135356600Y-84043520D03*
X135356600Y-83545680D03*
X135356600Y-83045300D03*
X135356600Y-82544920D03*
X135356600Y-82047080D03*
X135356600Y-81546700D03*
X135356600Y-81046320D03*
X135356600Y-80548480D03*
X135356600Y-80048100D03*
X135356600Y-79547720D03*
D33*
X85026500Y-77470000D03*
D34*
X83756500Y-77470000D03*
X82486500Y-77470000D03*
X81216500Y-77470000D03*
X81216500Y-83312000D03*
X82486500Y-83312000D03*
X83756500Y-83312000D03*
X85026500Y-83312000D03*
D35*
X113858040Y-75062080D03*
X115757960Y-75062080D03*
X114808000Y-72765920D03*
D36*
X133604000Y-72898000D03*
X128524000Y-72898000D03*
D37*
X65481200Y-87731600D03*
D38*
X65481200Y-85191600D03*
X62941200Y-87731600D03*
X62941200Y-85191600D03*
X60401200Y-87731600D03*
X60401200Y-85191600D03*
X57861200Y-87731600D03*
X57861200Y-85191600D03*
D39*
X140503660Y-70519540D03*
X49612800Y-84918800D03*
X48516800Y-142973800D03*
X142465800Y-142973800D03*
M02*
