M48
;DRILL file {KiCad (2016-07-28 BZR 6996, Git e15ad93)-product} date Thu Oct 20 17:42:42 2016
;FORMAT={-:-/ absolute / inch / decimal}
FMAT,2
INCH,TZ
T1C0.010
T2C0.040
T3C0.040
T4C0.055
T5C0.069
T6C0.071
T7C0.079
T8C0.118
%
G90
G05
M72
T1
X1.8325Y-4.8725
X1.835Y-3.89
X1.8375Y-4.4075
X1.8375Y-5.4325
X1.86Y-3.4675
X2.0275Y-5.6975
X2.14Y-3.22
X2.4Y-4.5625
X2.42Y-5.15
X2.445Y-3.635
X2.5425Y-4.825
X2.565Y-3.195
X2.6825Y-3.9675
X2.6825Y-4.3125
X2.7075Y-4.4775
X2.7325Y-5.705
X2.8125Y-3.815
X2.8525Y-3.2875
X2.9225Y-3.4275
X2.9225Y-3.49
X2.9225Y-3.5525
X3.015Y-3.42
X3.015Y-3.49
X3.015Y-3.555
X3.1975Y-4.5025
X3.245Y-5.4925
X3.2475Y-3.3375
X3.27Y-4.325
X3.33Y-3.53
X3.33Y-3.5875
X3.3575Y-5.6975
X3.39Y-3.6275
X3.4325Y-3.35
X3.5625Y-3.4275
X3.6275Y-2.95
X3.8925Y-5.49
X3.926Y-3.01
X3.9825Y-5.6975
X4.0175Y-2.89
X4.0175Y-4.5025
X4.145Y-4.32
X4.1725Y-3.19
X4.1725Y-3.26
X4.1725Y-3.325
X4.2675Y-3.19
X4.2675Y-3.26
X4.2675Y-3.3
X4.2775Y-5.4125
X4.43Y-4.62
X4.445Y-2.955
X4.4825Y-5.1625
X4.495Y-4.3475
X4.525Y-3.29
X4.56Y-4.4425
X4.62Y-2.85
X4.6275Y-3.0075
X4.6475Y-3.24
X4.655Y-3.9575
X4.6986Y-2.8039
X4.7175Y-4.4025
X4.755Y-3.24
X4.78Y-4.585
X4.7975Y-4.0375
X4.8Y-3.3775
X4.84Y-5.5
X4.8675Y-2.7773
X4.885Y-4.12
X4.9125Y-3.1775
X4.9725Y-2.8525
X4.985Y-2.9825
X5.035Y-4.205
X5.055Y-4.07
X5.0725Y-5.705
X5.0925Y-3.2525
X5.1028Y-3.185
X5.106Y-3.3265
X5.1475Y-3.4875
X5.165Y-2.76
X5.17Y-3.2625
X5.2Y-2.9925
X5.235Y-3.3475
X5.25Y-3.27
X5.3884Y-3.112
X5.3975Y-3.2675
X5.42Y-3.136
X5.435Y-2.6375
X5.435Y-4.0775
X5.5075Y-3.585
X5.515Y-3.1575
X5.5325Y-5.1625
X5.55Y-3.8875
X5.5561Y-4.565
X5.6675Y-4.8925
X5.675Y-3.055
X5.6775Y-3.5975
X5.6775Y-4.1625
X5.6825Y-5.4425
T2
X2.278Y-3.354
X2.278Y-3.454
X2.378Y-3.354
X2.378Y-3.454
X2.478Y-3.354
X2.478Y-3.454
X2.578Y-3.354
X2.578Y-3.454
T3
X4.1514Y-5.665
X4.2697Y-5.5099
X4.2697Y-5.6279
X4.3877Y-5.5099
X4.3877Y-5.6279
X4.5057Y-5.5099
X4.5057Y-5.6279
X4.6237Y-5.5099
X4.6237Y-5.6279
X4.7417Y-5.5099
X4.7417Y-5.6279
X4.86Y-5.665
T4
X1.949Y-4.6612
X1.949Y-4.858
X1.949Y-5.272
X1.949Y-5.4688
X2.024Y-3.8616
X2.024Y-4.0584
X2.441Y-4.6612
X2.441Y-4.858
X2.441Y-5.272
X2.441Y-5.4688
X2.516Y-3.8616
X2.516Y-4.0584
X2.665Y-4.5892
X2.665Y-4.786
X2.665Y-5.2
X2.665Y-5.3968
X2.9Y-3.75
X2.9Y-3.9468
X3.157Y-4.5892
X3.157Y-4.786
X3.157Y-5.2
X3.157Y-5.3968
X3.374Y-4.5235
X3.374Y-4.7203
X3.374Y-5.1347
X3.374Y-5.3315
X3.392Y-3.75
X3.392Y-3.9468
X3.866Y-4.5235
X3.866Y-4.7203
X3.866Y-5.1347
X3.866Y-5.3315
X4.183Y-5.0866
X4.183Y-5.2834
X4.184Y-4.4892
X4.184Y-4.686
X4.288Y-3.69
X4.288Y-3.8868
X4.675Y-5.0866
X4.675Y-5.2834
X4.676Y-4.4892
X4.676Y-4.686
X4.78Y-3.69
X4.78Y-3.8868
X4.888Y-4.5655
X4.888Y-4.7623
X4.888Y-5.1632
X4.888Y-5.36
X4.978Y-3.69
X4.978Y-3.8868
X5.38Y-4.5655
X5.38Y-4.7623
X5.38Y-5.1632
X5.38Y-5.36
X5.47Y-3.69
X5.47Y-3.8868
T5
X3.7226Y-3.5726
X3.7226Y-3.8874
X3.8013Y-3.73
X3.88Y-3.5726
X3.88Y-3.8874
X3.9587Y-3.73
X4.0374Y-3.5726
X4.0374Y-3.8874
T6
X2.195Y-4.5825
X2.195Y-4.9367
X2.195Y-5.1933
X2.195Y-5.5475
X2.27Y-3.7829
X2.27Y-4.1371
X2.911Y-4.5105
X2.911Y-4.8647
X2.911Y-5.1213
X2.911Y-5.4755
X3.146Y-3.6713
X3.146Y-4.0255
X3.62Y-4.4448
X3.62Y-4.799
X3.62Y-5.056
X3.62Y-5.4102
X4.429Y-5.0079
X4.429Y-5.3621
X4.43Y-4.4105
X4.43Y-4.7647
X4.534Y-3.6113
X4.534Y-3.9655
X5.134Y-4.4868
X5.134Y-4.841
X5.134Y-5.0845
X5.134Y-5.4387
X5.224Y-3.6113
X5.224Y-3.9655
T7
X3.2816Y-3.4426
X3.3407Y-4.1551
X4.4193Y-4.1551
X4.4784Y-3.4426
T8
X1.9101Y-5.6289
X1.9533Y-3.3433
X5.5316Y-2.7764
X5.6089Y-5.6289
T0
M30
