G04 #@! TF.FileFunction,Legend,Top*
%FSLAX46Y46*%
G04 Gerber Fmt 4.6, Leading zero omitted, Abs format (unit mm)*
G04 Created by KiCad (PCBNEW (2016-07-28 BZR 6996, Git e15ad93)-product) date Thu Oct 20 17:42:39 2016*
%MOMM*%
%LPD*%
G01*
G04 APERTURE LIST*
%ADD10C,0.100000*%
%ADD11C,0.200000*%
%ADD12C,0.198120*%
%ADD13C,0.203200*%
%ADD14C,0.101600*%
%ADD15C,0.127000*%
%ADD16C,0.076200*%
G04 APERTURE END LIST*
D10*
D11*
X86512400Y-85750400D02*
X86512400Y-84429600D01*
X83667600Y-85750400D02*
X86512400Y-85750400D01*
X83667600Y-84429600D02*
X83667600Y-85750400D01*
X86512400Y-84429600D02*
X83667600Y-84429600D01*
D10*
X84632800Y-85572600D02*
X84632800Y-84607400D01*
X84632800Y-84607400D02*
X84251800Y-84607400D01*
X84251800Y-85572600D02*
X84632800Y-85572600D01*
X85547200Y-84607400D02*
X85547200Y-85572600D01*
X85547200Y-85572600D02*
X85928200Y-85572600D01*
X85928200Y-84607400D02*
X85547200Y-84607400D01*
X84632800Y-85572600D02*
X85547200Y-85572600D01*
X85928200Y-85572600D02*
X85928200Y-84607400D01*
X85547200Y-84607400D02*
X84632800Y-84607400D01*
X84251800Y-84607400D02*
X84251800Y-85572600D01*
D12*
X79522320Y-89230200D02*
X71226680Y-89230200D01*
X71226680Y-89230200D02*
X71226680Y-81932780D01*
X71226680Y-81932780D02*
X72224900Y-80934560D01*
X72224900Y-80934560D02*
X78524100Y-80934560D01*
X78524100Y-80934560D02*
X79522320Y-81932780D01*
X79522320Y-81932780D02*
X79522320Y-89230200D01*
D11*
X121259600Y-83210400D02*
X122580400Y-83210400D01*
X121259600Y-80365600D02*
X121259600Y-83210400D01*
X122580400Y-80365600D02*
X121259600Y-80365600D01*
X122580400Y-83210400D02*
X122580400Y-80365600D01*
D10*
X121437400Y-81330800D02*
X122402600Y-81330800D01*
X122402600Y-81330800D02*
X122402600Y-80949800D01*
X121437400Y-80949800D02*
X121437400Y-81330800D01*
X122402600Y-82245200D02*
X121437400Y-82245200D01*
X121437400Y-82245200D02*
X121437400Y-82626200D01*
X122402600Y-82626200D02*
X122402600Y-82245200D01*
X121437400Y-81330800D02*
X121437400Y-82245200D01*
X121437400Y-82626200D02*
X122402600Y-82626200D01*
X122402600Y-82245200D02*
X122402600Y-81330800D01*
X122402600Y-80949800D02*
X121437400Y-80949800D01*
D11*
X134264400Y-70764400D02*
X134264400Y-69443600D01*
X131419600Y-70764400D02*
X134264400Y-70764400D01*
X131419600Y-69443600D02*
X131419600Y-70764400D01*
X134264400Y-69443600D02*
X131419600Y-69443600D01*
D10*
X132384800Y-70586600D02*
X132384800Y-69621400D01*
X132384800Y-69621400D02*
X132003800Y-69621400D01*
X132003800Y-70586600D02*
X132384800Y-70586600D01*
X133299200Y-69621400D02*
X133299200Y-70586600D01*
X133299200Y-70586600D02*
X133680200Y-70586600D01*
X133680200Y-69621400D02*
X133299200Y-69621400D01*
X132384800Y-70586600D02*
X133299200Y-70586600D01*
X133680200Y-70586600D02*
X133680200Y-69621400D01*
X133299200Y-69621400D02*
X132384800Y-69621400D01*
X132003800Y-69621400D02*
X132003800Y-70586600D01*
D11*
X128117600Y-69443600D02*
X128117600Y-70764400D01*
X130962400Y-69443600D02*
X128117600Y-69443600D01*
X130962400Y-70764400D02*
X130962400Y-69443600D01*
X128117600Y-70764400D02*
X130962400Y-70764400D01*
D10*
X129997200Y-69621400D02*
X129997200Y-70586600D01*
X129997200Y-70586600D02*
X130378200Y-70586600D01*
X130378200Y-69621400D02*
X129997200Y-69621400D01*
X129082800Y-70586600D02*
X129082800Y-69621400D01*
X129082800Y-69621400D02*
X128701800Y-69621400D01*
X128701800Y-70586600D02*
X129082800Y-70586600D01*
X129997200Y-69621400D02*
X129082800Y-69621400D01*
X128701800Y-69621400D02*
X128701800Y-70586600D01*
X129082800Y-70586600D02*
X129997200Y-70586600D01*
X130378200Y-70586600D02*
X130378200Y-69621400D01*
D11*
X88734900Y-78130400D02*
X88734900Y-76809600D01*
X85890100Y-78130400D02*
X88734900Y-78130400D01*
X85890100Y-76809600D02*
X85890100Y-78130400D01*
X88734900Y-76809600D02*
X85890100Y-76809600D01*
D10*
X86855300Y-77952600D02*
X86855300Y-76987400D01*
X86855300Y-76987400D02*
X86474300Y-76987400D01*
X86474300Y-77952600D02*
X86855300Y-77952600D01*
X87769700Y-76987400D02*
X87769700Y-77952600D01*
X87769700Y-77952600D02*
X88150700Y-77952600D01*
X88150700Y-76987400D02*
X87769700Y-76987400D01*
X86855300Y-77952600D02*
X87769700Y-77952600D01*
X88150700Y-77952600D02*
X88150700Y-76987400D01*
X87769700Y-76987400D02*
X86855300Y-76987400D01*
X86474300Y-76987400D02*
X86474300Y-77952600D01*
D11*
X118008400Y-72999600D02*
X116687600Y-72999600D01*
X118008400Y-75844400D02*
X118008400Y-72999600D01*
X116687600Y-75844400D02*
X118008400Y-75844400D01*
X116687600Y-72999600D02*
X116687600Y-75844400D01*
D10*
X117830600Y-74879200D02*
X116865400Y-74879200D01*
X116865400Y-74879200D02*
X116865400Y-75260200D01*
X117830600Y-75260200D02*
X117830600Y-74879200D01*
X116865400Y-73964800D02*
X117830600Y-73964800D01*
X117830600Y-73964800D02*
X117830600Y-73583800D01*
X116865400Y-73583800D02*
X116865400Y-73964800D01*
X117830600Y-74879200D02*
X117830600Y-73964800D01*
X117830600Y-73583800D02*
X116865400Y-73583800D01*
X116865400Y-73964800D02*
X116865400Y-74879200D01*
X116865400Y-75260200D02*
X117830600Y-75260200D01*
D11*
X139090400Y-82194400D02*
X139090400Y-80873600D01*
X136245600Y-82194400D02*
X139090400Y-82194400D01*
X136245600Y-80873600D02*
X136245600Y-82194400D01*
X139090400Y-80873600D02*
X136245600Y-80873600D01*
D10*
X137210800Y-82016600D02*
X137210800Y-81051400D01*
X137210800Y-81051400D02*
X136829800Y-81051400D01*
X136829800Y-82016600D02*
X137210800Y-82016600D01*
X138125200Y-81051400D02*
X138125200Y-82016600D01*
X138125200Y-82016600D02*
X138506200Y-82016600D01*
X138506200Y-81051400D02*
X138125200Y-81051400D01*
X137210800Y-82016600D02*
X138125200Y-82016600D01*
X138506200Y-82016600D02*
X138506200Y-81051400D01*
X138125200Y-81051400D02*
X137210800Y-81051400D01*
X136829800Y-81051400D02*
X136829800Y-82016600D01*
D12*
X111335820Y-83388200D02*
X103040180Y-83388200D01*
X103040180Y-83388200D02*
X103040180Y-76090780D01*
X103040180Y-76090780D02*
X104038400Y-75092560D01*
X104038400Y-75092560D02*
X110337600Y-75092560D01*
X110337600Y-75092560D02*
X111335820Y-76090780D01*
X111335820Y-76090780D02*
X111335820Y-83388200D01*
D11*
X130454400Y-76606400D02*
X130454400Y-75285600D01*
X127609600Y-76606400D02*
X130454400Y-76606400D01*
X127609600Y-75285600D02*
X127609600Y-76606400D01*
X130454400Y-75285600D02*
X127609600Y-75285600D01*
D10*
X128574800Y-76428600D02*
X128574800Y-75463400D01*
X128574800Y-75463400D02*
X128193800Y-75463400D01*
X128193800Y-76428600D02*
X128574800Y-76428600D01*
X129489200Y-75463400D02*
X129489200Y-76428600D01*
X129489200Y-76428600D02*
X129870200Y-76428600D01*
X129870200Y-75463400D02*
X129489200Y-75463400D01*
X128574800Y-76428600D02*
X129489200Y-76428600D01*
X129870200Y-76428600D02*
X129870200Y-75463400D01*
X129489200Y-75463400D02*
X128574800Y-75463400D01*
X128193800Y-75463400D02*
X128193800Y-76428600D01*
D13*
X87393780Y-89425780D02*
X87393780Y-91422220D01*
X87393780Y-91422220D02*
X88991440Y-90424000D01*
X88991440Y-90424000D02*
X87393780Y-89425780D01*
X88991440Y-89425780D02*
X89189560Y-89425780D01*
X89189560Y-89425780D02*
X89189560Y-91422220D01*
X89189560Y-91422220D02*
X89390220Y-91422220D01*
X86093300Y-92323920D02*
X90591640Y-92323920D01*
X90591640Y-92323920D02*
X90591640Y-91922600D01*
X86093300Y-92323920D02*
X86093300Y-91922600D01*
X86093300Y-88925400D02*
X86093300Y-88524080D01*
X86093300Y-88524080D02*
X90591640Y-88524080D01*
X90591640Y-88524080D02*
X90591640Y-88925400D01*
D11*
X122783600Y-74269600D02*
X122783600Y-75590400D01*
X125628400Y-74269600D02*
X122783600Y-74269600D01*
X125628400Y-75590400D02*
X125628400Y-74269600D01*
X122783600Y-75590400D02*
X125628400Y-75590400D01*
D10*
X124663200Y-74447400D02*
X124663200Y-75412600D01*
X124663200Y-75412600D02*
X125044200Y-75412600D01*
X125044200Y-74447400D02*
X124663200Y-74447400D01*
X123748800Y-75412600D02*
X123748800Y-74447400D01*
X123748800Y-74447400D02*
X123367800Y-74447400D01*
X123367800Y-75412600D02*
X123748800Y-75412600D01*
X124663200Y-74447400D02*
X123748800Y-74447400D01*
X123367800Y-74447400D02*
X123367800Y-75412600D01*
X123748800Y-75412600D02*
X124663200Y-75412600D01*
X125044200Y-75412600D02*
X125044200Y-74447400D01*
D13*
X88364060Y-85730080D02*
X89562940Y-85730080D01*
X89562940Y-85730080D02*
X88963500Y-84830920D01*
X88963500Y-84830920D02*
X88364060Y-85730080D01*
X88364060Y-84830920D02*
X89562940Y-84830920D01*
D11*
X120251035Y-69765940D02*
X120251035Y-71086740D01*
X123095835Y-69765940D02*
X120251035Y-69765940D01*
X123095835Y-71086740D02*
X123095835Y-69765940D01*
X120251035Y-71086740D02*
X123095835Y-71086740D01*
D10*
X122130635Y-69943740D02*
X122130635Y-70908940D01*
X122130635Y-70908940D02*
X122511635Y-70908940D01*
X122511635Y-69943740D02*
X122130635Y-69943740D01*
X121216235Y-70908940D02*
X121216235Y-69943740D01*
X121216235Y-69943740D02*
X120835235Y-69943740D01*
X120835235Y-70908940D02*
X121216235Y-70908940D01*
X122130635Y-69943740D02*
X121216235Y-69943740D01*
X120835235Y-69943740D02*
X120835235Y-70908940D01*
X121216235Y-70908940D02*
X122130635Y-70908940D01*
X122511635Y-70908940D02*
X122511635Y-69943740D01*
D13*
X132910580Y-106072940D02*
X132910580Y-104874060D01*
X132910580Y-104874060D02*
X132011420Y-105473500D01*
X132011420Y-105473500D02*
X132910580Y-106072940D01*
X132011420Y-106072940D02*
X132011420Y-104874060D01*
X132882745Y-107850940D02*
X132882745Y-106652060D01*
X132882745Y-106652060D02*
X131983585Y-107251500D01*
X131983585Y-107251500D02*
X132882745Y-107850940D01*
X131983585Y-107850940D02*
X131983585Y-106652060D01*
X132910580Y-109755940D02*
X132910580Y-108557060D01*
X132910580Y-108557060D02*
X132011420Y-109156500D01*
X132011420Y-109156500D02*
X132910580Y-109755940D01*
X132011420Y-109755940D02*
X132011420Y-108557060D01*
X89270840Y-97218500D02*
X89270840Y-95821500D01*
X91069160Y-97218500D02*
X91069160Y-95821500D01*
X89016840Y-78211680D02*
X93014800Y-75410060D01*
X97414080Y-75410060D02*
X101414580Y-78211680D01*
X101414580Y-81808320D02*
X97414080Y-84609940D01*
X93014800Y-84609940D02*
X89016840Y-81808320D01*
X97413093Y-75409338D02*
G75*
G03X93014800Y-75410060I-2198653J-3010622D01*
G01*
X93015787Y-84610662D02*
G75*
G03X97414080Y-84609940I2198653J3010622D01*
G01*
D11*
X125628400Y-77368400D02*
X125628400Y-76047600D01*
X122783600Y-77368400D02*
X125628400Y-77368400D01*
X122783600Y-76047600D02*
X122783600Y-77368400D01*
X125628400Y-76047600D02*
X122783600Y-76047600D01*
D10*
X123748800Y-77190600D02*
X123748800Y-76225400D01*
X123748800Y-76225400D02*
X123367800Y-76225400D01*
X123367800Y-77190600D02*
X123748800Y-77190600D01*
X124663200Y-76225400D02*
X124663200Y-77190600D01*
X124663200Y-77190600D02*
X125044200Y-77190600D01*
X125044200Y-76225400D02*
X124663200Y-76225400D01*
X123748800Y-77190600D02*
X124663200Y-77190600D01*
X125044200Y-77190600D02*
X125044200Y-76225400D01*
X124663200Y-76225400D02*
X123748800Y-76225400D01*
X123367800Y-76225400D02*
X123367800Y-77190600D01*
D11*
X123088400Y-72796400D02*
X123088400Y-71475600D01*
X120243600Y-72796400D02*
X123088400Y-72796400D01*
X120243600Y-71475600D02*
X120243600Y-72796400D01*
X123088400Y-71475600D02*
X120243600Y-71475600D01*
D10*
X121208800Y-72618600D02*
X121208800Y-71653400D01*
X121208800Y-71653400D02*
X120827800Y-71653400D01*
X120827800Y-72618600D02*
X121208800Y-72618600D01*
X122123200Y-71653400D02*
X122123200Y-72618600D01*
X122123200Y-72618600D02*
X122504200Y-72618600D01*
X122504200Y-71653400D02*
X122123200Y-71653400D01*
X121208800Y-72618600D02*
X122123200Y-72618600D01*
X122504200Y-72618600D02*
X122504200Y-71653400D01*
X122123200Y-71653400D02*
X121208800Y-71653400D01*
X120827800Y-71653400D02*
X120827800Y-72618600D01*
D11*
X137388600Y-106705400D02*
X138709400Y-106705400D01*
X137388600Y-103860600D02*
X137388600Y-106705400D01*
X138709400Y-103860600D02*
X137388600Y-103860600D01*
X138709400Y-106705400D02*
X138709400Y-103860600D01*
D10*
X137566400Y-104825800D02*
X138531600Y-104825800D01*
X138531600Y-104825800D02*
X138531600Y-104444800D01*
X137566400Y-104444800D02*
X137566400Y-104825800D01*
X138531600Y-105740200D02*
X137566400Y-105740200D01*
X137566400Y-105740200D02*
X137566400Y-106121200D01*
X138531600Y-106121200D02*
X138531600Y-105740200D01*
X137566400Y-104825800D02*
X137566400Y-105740200D01*
X137566400Y-106121200D02*
X138531600Y-106121200D01*
X138531600Y-105740200D02*
X138531600Y-104825800D01*
X138531600Y-104444800D02*
X137566400Y-104444800D01*
D11*
X135610600Y-106768900D02*
X136931400Y-106768900D01*
X135610600Y-103924100D02*
X135610600Y-106768900D01*
X136931400Y-103924100D02*
X135610600Y-103924100D01*
X136931400Y-106768900D02*
X136931400Y-103924100D01*
D10*
X135788400Y-104889300D02*
X136753600Y-104889300D01*
X136753600Y-104889300D02*
X136753600Y-104508300D01*
X135788400Y-104508300D02*
X135788400Y-104889300D01*
X136753600Y-105803700D02*
X135788400Y-105803700D01*
X135788400Y-105803700D02*
X135788400Y-106184700D01*
X136753600Y-106184700D02*
X136753600Y-105803700D01*
X135788400Y-104889300D02*
X135788400Y-105803700D01*
X135788400Y-106184700D02*
X136753600Y-106184700D01*
X136753600Y-105803700D02*
X136753600Y-104889300D01*
X136753600Y-104508300D02*
X135788400Y-104508300D01*
D11*
X139166600Y-106705400D02*
X140487400Y-106705400D01*
X139166600Y-103860600D02*
X139166600Y-106705400D01*
X140487400Y-103860600D02*
X139166600Y-103860600D01*
X140487400Y-106705400D02*
X140487400Y-103860600D01*
D10*
X139344400Y-104825800D02*
X140309600Y-104825800D01*
X140309600Y-104825800D02*
X140309600Y-104444800D01*
X139344400Y-104444800D02*
X139344400Y-104825800D01*
X140309600Y-105740200D02*
X139344400Y-105740200D01*
X139344400Y-105740200D02*
X139344400Y-106121200D01*
X140309600Y-106121200D02*
X140309600Y-105740200D01*
X139344400Y-104825800D02*
X139344400Y-105740200D01*
X139344400Y-106121200D02*
X140309600Y-106121200D01*
X140309600Y-105740200D02*
X140309600Y-104825800D01*
X140309600Y-104444800D02*
X139344400Y-104444800D01*
D11*
X138709400Y-107492800D02*
X137388600Y-107492800D01*
X138709400Y-110337600D02*
X138709400Y-107492800D01*
X137388600Y-110337600D02*
X138709400Y-110337600D01*
X137388600Y-107492800D02*
X137388600Y-110337600D01*
D10*
X138531600Y-109372400D02*
X137566400Y-109372400D01*
X137566400Y-109372400D02*
X137566400Y-109753400D01*
X138531600Y-109753400D02*
X138531600Y-109372400D01*
X137566400Y-108458000D02*
X138531600Y-108458000D01*
X138531600Y-108458000D02*
X138531600Y-108077000D01*
X137566400Y-108077000D02*
X137566400Y-108458000D01*
X138531600Y-109372400D02*
X138531600Y-108458000D01*
X138531600Y-108077000D02*
X137566400Y-108077000D01*
X137566400Y-108458000D02*
X137566400Y-109372400D01*
X137566400Y-109753400D02*
X138531600Y-109753400D01*
D11*
X136931400Y-107480100D02*
X135610600Y-107480100D01*
X136931400Y-110324900D02*
X136931400Y-107480100D01*
X135610600Y-110324900D02*
X136931400Y-110324900D01*
X135610600Y-107480100D02*
X135610600Y-110324900D01*
D10*
X136753600Y-109359700D02*
X135788400Y-109359700D01*
X135788400Y-109359700D02*
X135788400Y-109740700D01*
X136753600Y-109740700D02*
X136753600Y-109359700D01*
X135788400Y-108445300D02*
X136753600Y-108445300D01*
X136753600Y-108445300D02*
X136753600Y-108064300D01*
X135788400Y-108064300D02*
X135788400Y-108445300D01*
X136753600Y-109359700D02*
X136753600Y-108445300D01*
X136753600Y-108064300D02*
X135788400Y-108064300D01*
X135788400Y-108445300D02*
X135788400Y-109359700D01*
X135788400Y-109740700D02*
X136753600Y-109740700D01*
D11*
X140487400Y-107492800D02*
X139166600Y-107492800D01*
X140487400Y-110337600D02*
X140487400Y-107492800D01*
X139166600Y-110337600D02*
X140487400Y-110337600D01*
X139166600Y-107492800D02*
X139166600Y-110337600D01*
D10*
X140309600Y-109372400D02*
X139344400Y-109372400D01*
X139344400Y-109372400D02*
X139344400Y-109753400D01*
X140309600Y-109753400D02*
X140309600Y-109372400D01*
X139344400Y-108458000D02*
X140309600Y-108458000D01*
X140309600Y-108458000D02*
X140309600Y-108077000D01*
X139344400Y-108077000D02*
X139344400Y-108458000D01*
X140309600Y-109372400D02*
X140309600Y-108458000D01*
X140309600Y-108077000D02*
X139344400Y-108077000D01*
X139344400Y-108458000D02*
X139344400Y-109372400D01*
X139344400Y-109753400D02*
X140309600Y-109753400D01*
D13*
X107746800Y-125699520D02*
X107248960Y-126199900D01*
X107248960Y-137198100D02*
X107746800Y-137698480D01*
X107746800Y-137698480D02*
X117246400Y-137698480D01*
X117246400Y-137698480D02*
X117744240Y-137198100D01*
X117744240Y-126199900D02*
X117246400Y-125699520D01*
X117246400Y-125699520D02*
X107746800Y-125699520D01*
X117744240Y-126199900D02*
X117744240Y-128201420D01*
X117744240Y-130700780D02*
X117744240Y-132697220D01*
X117744240Y-135196580D02*
X117744240Y-137198100D01*
X107248960Y-137198100D02*
X107248960Y-135196580D01*
X107248960Y-132697220D02*
X107248960Y-130700780D01*
X107248960Y-127701040D02*
X107248960Y-126199900D01*
X125653800Y-127645160D02*
X125155960Y-128145540D01*
X125155960Y-139143740D02*
X125653800Y-139644120D01*
X125653800Y-139644120D02*
X135153400Y-139644120D01*
X135153400Y-139644120D02*
X135651240Y-139143740D01*
X135651240Y-128145540D02*
X135153400Y-127645160D01*
X135153400Y-127645160D02*
X125653800Y-127645160D01*
X135651240Y-128145540D02*
X135651240Y-130147060D01*
X135651240Y-132646420D02*
X135651240Y-134642860D01*
X135651240Y-137142220D02*
X135651240Y-139143740D01*
X125155960Y-139143740D02*
X125155960Y-137142220D01*
X125155960Y-134642860D02*
X125155960Y-132646420D01*
X125155960Y-129646680D02*
X125155960Y-128145540D01*
X107772200Y-110525560D02*
X107274360Y-111025940D01*
X107274360Y-122024140D02*
X107772200Y-122524520D01*
X107772200Y-122524520D02*
X117271800Y-122524520D01*
X117271800Y-122524520D02*
X117769640Y-122024140D01*
X117769640Y-111025940D02*
X117271800Y-110525560D01*
X117271800Y-110525560D02*
X107772200Y-110525560D01*
X117769640Y-111025940D02*
X117769640Y-113027460D01*
X117769640Y-115526820D02*
X117769640Y-117523260D01*
X117769640Y-120022620D02*
X117769640Y-122024140D01*
X107274360Y-122024140D02*
X107274360Y-120022620D01*
X107274360Y-117523260D02*
X107274360Y-115526820D01*
X107274360Y-112527080D02*
X107274360Y-111025940D01*
X125653800Y-112463580D02*
X125155960Y-112963960D01*
X125155960Y-123962160D02*
X125653800Y-124462540D01*
X125653800Y-124462540D02*
X135153400Y-124462540D01*
X135153400Y-124462540D02*
X135651240Y-123962160D01*
X135651240Y-112963960D02*
X135153400Y-112463580D01*
X135153400Y-112463580D02*
X125653800Y-112463580D01*
X135651240Y-112963960D02*
X135651240Y-114965480D01*
X135651240Y-117464840D02*
X135651240Y-119461280D01*
X135651240Y-121960640D02*
X135651240Y-123962160D01*
X125155960Y-123962160D02*
X125155960Y-121960640D01*
X125155960Y-119461280D02*
X125155960Y-117464840D01*
X125155960Y-114465100D02*
X125155960Y-112963960D01*
X51003200Y-130408680D02*
X50505360Y-130909060D01*
X50505360Y-141907260D02*
X51003200Y-142407640D01*
X51003200Y-142407640D02*
X60502800Y-142407640D01*
X60502800Y-142407640D02*
X61000640Y-141907260D01*
X61000640Y-130909060D02*
X60502800Y-130408680D01*
X60502800Y-130408680D02*
X51003200Y-130408680D01*
X61000640Y-130909060D02*
X61000640Y-132910580D01*
X61000640Y-135409940D02*
X61000640Y-137406380D01*
X61000640Y-139905740D02*
X61000640Y-141907260D01*
X50505360Y-141907260D02*
X50505360Y-139905740D01*
X50505360Y-137406380D02*
X50505360Y-135409940D01*
X50505360Y-132410200D02*
X50505360Y-130909060D01*
X69189600Y-128579880D02*
X68691760Y-129080260D01*
X68691760Y-140078460D02*
X69189600Y-140578840D01*
X69189600Y-140578840D02*
X78689200Y-140578840D01*
X78689200Y-140578840D02*
X79187040Y-140078460D01*
X79187040Y-129080260D02*
X78689200Y-128579880D01*
X78689200Y-128579880D02*
X69189600Y-128579880D01*
X79187040Y-129080260D02*
X79187040Y-131081780D01*
X79187040Y-133581140D02*
X79187040Y-135577580D01*
X79187040Y-138076940D02*
X79187040Y-140078460D01*
X68691760Y-140078460D02*
X68691760Y-138076940D01*
X68691760Y-135577580D02*
X68691760Y-133581140D01*
X68691760Y-130581400D02*
X68691760Y-129080260D01*
X87198200Y-126921260D02*
X86700360Y-127421640D01*
X86700360Y-138419840D02*
X87198200Y-138920220D01*
X87198200Y-138920220D02*
X96697800Y-138920220D01*
X96697800Y-138920220D02*
X97195640Y-138419840D01*
X97195640Y-127421640D02*
X96697800Y-126921260D01*
X96697800Y-126921260D02*
X87198200Y-126921260D01*
X97195640Y-127421640D02*
X97195640Y-129423160D01*
X97195640Y-131922520D02*
X97195640Y-133918960D01*
X97195640Y-136418320D02*
X97195640Y-138419840D01*
X86700360Y-138419840D02*
X86700360Y-136418320D01*
X86700360Y-133918960D02*
X86700360Y-131922520D01*
X86700360Y-128922780D02*
X86700360Y-127421640D01*
X51003200Y-114894360D02*
X50505360Y-115394740D01*
X50505360Y-126392940D02*
X51003200Y-126893320D01*
X51003200Y-126893320D02*
X60502800Y-126893320D01*
X60502800Y-126893320D02*
X61000640Y-126392940D01*
X61000640Y-115394740D02*
X60502800Y-114894360D01*
X60502800Y-114894360D02*
X51003200Y-114894360D01*
X61000640Y-115394740D02*
X61000640Y-117396260D01*
X61000640Y-119895620D02*
X61000640Y-121892060D01*
X61000640Y-124391420D02*
X61000640Y-126392940D01*
X50505360Y-126392940D02*
X50505360Y-124391420D01*
X50505360Y-121892060D02*
X50505360Y-119895620D01*
X50505360Y-116895880D02*
X50505360Y-115394740D01*
X69189600Y-113065560D02*
X68691760Y-113565940D01*
X68691760Y-124564140D02*
X69189600Y-125064520D01*
X69189600Y-125064520D02*
X78689200Y-125064520D01*
X78689200Y-125064520D02*
X79187040Y-124564140D01*
X79187040Y-113565940D02*
X78689200Y-113065560D01*
X78689200Y-113065560D02*
X69189600Y-113065560D01*
X79187040Y-113565940D02*
X79187040Y-115567460D01*
X79187040Y-118066820D02*
X79187040Y-120063260D01*
X79187040Y-122562620D02*
X79187040Y-124564140D01*
X68691760Y-124564140D02*
X68691760Y-122562620D01*
X68691760Y-120063260D02*
X68691760Y-118066820D01*
X68691760Y-115067080D02*
X68691760Y-113565940D01*
X87198200Y-111396780D02*
X86700360Y-111897160D01*
X86700360Y-122895360D02*
X87198200Y-123395740D01*
X87198200Y-123395740D02*
X96697800Y-123395740D01*
X96697800Y-123395740D02*
X97195640Y-122895360D01*
X97195640Y-111897160D02*
X96697800Y-111396780D01*
X96697800Y-111396780D02*
X87198200Y-111396780D01*
X97195640Y-111897160D02*
X97195640Y-113898680D01*
X97195640Y-116398040D02*
X97195640Y-118394480D01*
X97195640Y-120893840D02*
X97195640Y-122895360D01*
X86700360Y-122895360D02*
X86700360Y-120893840D01*
X86700360Y-118394480D02*
X86700360Y-116398040D01*
X86700360Y-113398300D02*
X86700360Y-111897160D01*
X52908200Y-94584520D02*
X52410360Y-95084900D01*
X52410360Y-106083100D02*
X52908200Y-106583480D01*
X52908200Y-106583480D02*
X62407800Y-106583480D01*
X62407800Y-106583480D02*
X62905640Y-106083100D01*
X62905640Y-95084900D02*
X62407800Y-94584520D01*
X62407800Y-94584520D02*
X52908200Y-94584520D01*
X62905640Y-95084900D02*
X62905640Y-97086420D01*
X62905640Y-99585780D02*
X62905640Y-101582220D01*
X62905640Y-104081580D02*
X62905640Y-106083100D01*
X52410360Y-106083100D02*
X52410360Y-104081580D01*
X52410360Y-101582220D02*
X52410360Y-99585780D01*
X52410360Y-96586040D02*
X52410360Y-95084900D01*
X75158600Y-91749880D02*
X74660760Y-92250260D01*
X74660760Y-103248460D02*
X75158600Y-103748840D01*
X75158600Y-103748840D02*
X84658200Y-103748840D01*
X84658200Y-103748840D02*
X85156040Y-103248460D01*
X85156040Y-92250260D02*
X84658200Y-91749880D01*
X84658200Y-91749880D02*
X75158600Y-91749880D01*
X85156040Y-92250260D02*
X85156040Y-94251780D01*
X85156040Y-96751140D02*
X85156040Y-98747580D01*
X85156040Y-101246940D02*
X85156040Y-103248460D01*
X74660760Y-103248460D02*
X74660760Y-101246940D01*
X74660760Y-98747580D02*
X74660760Y-96751140D01*
X74660760Y-93751400D02*
X74660760Y-92250260D01*
X127939800Y-90225880D02*
X127441960Y-90726260D01*
X127441960Y-101724460D02*
X127939800Y-102224840D01*
X127939800Y-102224840D02*
X137439400Y-102224840D01*
X137439400Y-102224840D02*
X137937240Y-101724460D01*
X137937240Y-90726260D02*
X137439400Y-90225880D01*
X137439400Y-90225880D02*
X127939800Y-90225880D01*
X137937240Y-90726260D02*
X137937240Y-92727780D01*
X137937240Y-95227140D02*
X137937240Y-97223580D01*
X137937240Y-99722940D02*
X137937240Y-101724460D01*
X127441960Y-101724460D02*
X127441960Y-99722940D01*
X127441960Y-97223580D02*
X127441960Y-95227140D01*
X127441960Y-92227400D02*
X127441960Y-90726260D01*
X110413800Y-90225880D02*
X109915960Y-90726260D01*
X109915960Y-101724460D02*
X110413800Y-102224840D01*
X110413800Y-102224840D02*
X119913400Y-102224840D01*
X119913400Y-102224840D02*
X120411240Y-101724460D01*
X120411240Y-90726260D02*
X119913400Y-90225880D01*
X119913400Y-90225880D02*
X110413800Y-90225880D01*
X120411240Y-90726260D02*
X120411240Y-92727780D01*
X120411240Y-95227140D02*
X120411240Y-97223580D01*
X120411240Y-99722940D02*
X120411240Y-101724460D01*
X109915960Y-101724460D02*
X109915960Y-99722940D01*
X109915960Y-97223580D02*
X109915960Y-95227140D01*
X109915960Y-92227400D02*
X109915960Y-90726260D01*
X114554000Y-84201000D02*
X114554000Y-79121000D01*
X114554000Y-79121000D02*
X118364000Y-79121000D01*
X118364000Y-79121000D02*
X118364000Y-84201000D01*
X118364000Y-84201000D02*
X114554000Y-84201000D01*
D14*
X117345447Y-83566000D02*
G75*
G03X117345447Y-83566000I-251447J0D01*
G01*
D13*
X134058660Y-78747620D02*
X134358380Y-79047340D01*
X134358380Y-79047340D02*
X134358380Y-85544660D01*
X134358380Y-85544660D02*
X134058660Y-85844380D01*
X134058660Y-85844380D02*
X127561340Y-85844380D01*
X127561340Y-85844380D02*
X127261620Y-85544660D01*
X127261620Y-85544660D02*
X127261620Y-79047340D01*
X127261620Y-79047340D02*
X127561340Y-78747620D01*
X127561340Y-78747620D02*
X134058660Y-78747620D01*
D14*
X133874385Y-79672180D02*
G75*
G03X133874385Y-79672180I-316105J0D01*
G01*
D13*
X85661500Y-82296000D02*
X80581500Y-82296000D01*
X80581500Y-82296000D02*
X80581500Y-78486000D01*
X80581500Y-78486000D02*
X85661500Y-78486000D01*
X85661500Y-78486000D02*
X85661500Y-82296000D01*
D14*
X85277947Y-79756000D02*
G75*
G03X85277947Y-79756000I-251447J0D01*
G01*
D12*
X116255800Y-73364420D02*
X113360200Y-73364420D01*
X113360200Y-73364420D02*
X113360200Y-74463580D01*
X116255800Y-73364420D02*
X116255800Y-74463580D01*
X116255800Y-74463580D02*
X113360200Y-74463580D01*
D15*
X133662420Y-74396600D02*
X133461760Y-74597260D01*
X133461760Y-74597260D02*
X128666240Y-74597260D01*
X128666240Y-74597260D02*
X128465580Y-74396600D01*
X128366520Y-71399400D02*
X128564640Y-71198740D01*
X128564640Y-71198740D02*
X133461760Y-71198740D01*
X133461760Y-71198740D02*
X133662420Y-71399400D01*
D16*
X86415033Y-84046785D02*
X86376328Y-84085490D01*
X86260214Y-84124195D01*
X86182804Y-84124195D01*
X86066690Y-84085490D01*
X85989280Y-84008080D01*
X85950576Y-83930671D01*
X85911871Y-83775852D01*
X85911871Y-83659738D01*
X85950576Y-83504919D01*
X85989280Y-83427509D01*
X86066690Y-83350100D01*
X86182804Y-83311395D01*
X86260214Y-83311395D01*
X86376328Y-83350100D01*
X86415033Y-83388804D01*
X87189128Y-84124195D02*
X86724671Y-84124195D01*
X86956900Y-84124195D02*
X86956900Y-83311395D01*
X86879490Y-83427509D01*
X86802080Y-83504919D01*
X86724671Y-83543623D01*
X85165595Y-86791195D02*
X84701138Y-86791195D01*
X84933366Y-86791195D02*
X84933366Y-85978395D01*
X84855957Y-86094509D01*
X84778547Y-86171919D01*
X84701138Y-86210623D01*
X85668757Y-85978395D02*
X85746166Y-85978395D01*
X85823576Y-86017100D01*
X85862280Y-86055804D01*
X85900985Y-86133214D01*
X85939690Y-86288033D01*
X85939690Y-86481557D01*
X85900985Y-86636376D01*
X85862280Y-86713785D01*
X85823576Y-86752490D01*
X85746166Y-86791195D01*
X85668757Y-86791195D01*
X85591347Y-86752490D01*
X85552642Y-86713785D01*
X85513938Y-86636376D01*
X85475233Y-86481557D01*
X85475233Y-86288033D01*
X85513938Y-86133214D01*
X85552642Y-86055804D01*
X85591347Y-86017100D01*
X85668757Y-85978395D01*
X86442852Y-85978395D02*
X86520261Y-85978395D01*
X86597671Y-86017100D01*
X86636376Y-86055804D01*
X86675080Y-86133214D01*
X86713785Y-86288033D01*
X86713785Y-86481557D01*
X86675080Y-86636376D01*
X86636376Y-86713785D01*
X86597671Y-86752490D01*
X86520261Y-86791195D01*
X86442852Y-86791195D01*
X86365442Y-86752490D01*
X86326738Y-86713785D01*
X86288033Y-86636376D01*
X86249328Y-86481557D01*
X86249328Y-86288033D01*
X86288033Y-86133214D01*
X86326738Y-86055804D01*
X86365442Y-86017100D01*
X86442852Y-85978395D01*
X87062128Y-86249328D02*
X87062128Y-86791195D01*
X87062128Y-86326738D02*
X87100833Y-86288033D01*
X87178242Y-86249328D01*
X87294357Y-86249328D01*
X87371766Y-86288033D01*
X87410471Y-86365442D01*
X87410471Y-86791195D01*
X88068452Y-86365442D02*
X87797519Y-86365442D01*
X87797519Y-86791195D02*
X87797519Y-85978395D01*
X88184566Y-85978395D01*
X75239033Y-85380285D02*
X75200328Y-85418990D01*
X75084214Y-85457695D01*
X75006804Y-85457695D01*
X74890690Y-85418990D01*
X74813280Y-85341580D01*
X74774576Y-85264171D01*
X74735871Y-85109352D01*
X74735871Y-84993238D01*
X74774576Y-84838419D01*
X74813280Y-84761009D01*
X74890690Y-84683600D01*
X75006804Y-84644895D01*
X75084214Y-84644895D01*
X75200328Y-84683600D01*
X75239033Y-84722304D01*
X75548671Y-84722304D02*
X75587376Y-84683600D01*
X75664785Y-84644895D01*
X75858309Y-84644895D01*
X75935719Y-84683600D01*
X75974423Y-84722304D01*
X76013128Y-84799714D01*
X76013128Y-84877123D01*
X75974423Y-84993238D01*
X75509966Y-85457695D01*
X76013128Y-85457695D01*
X123435533Y-81189285D02*
X123396828Y-81227990D01*
X123280714Y-81266695D01*
X123203304Y-81266695D01*
X123087190Y-81227990D01*
X123009780Y-81150580D01*
X122971076Y-81073171D01*
X122932371Y-80918352D01*
X122932371Y-80802238D01*
X122971076Y-80647419D01*
X123009780Y-80570009D01*
X123087190Y-80492600D01*
X123203304Y-80453895D01*
X123280714Y-80453895D01*
X123396828Y-80492600D01*
X123435533Y-80531304D01*
X123706466Y-80453895D02*
X124209628Y-80453895D01*
X123938695Y-80763533D01*
X124054809Y-80763533D01*
X124132219Y-80802238D01*
X124170923Y-80840942D01*
X124209628Y-80918352D01*
X124209628Y-81111876D01*
X124170923Y-81189285D01*
X124132219Y-81227990D01*
X124054809Y-81266695D01*
X123822580Y-81266695D01*
X123745171Y-81227990D01*
X123706466Y-81189285D01*
X121233595Y-84441695D02*
X120769138Y-84441695D01*
X121001366Y-84441695D02*
X121001366Y-83628895D01*
X120923957Y-83745009D01*
X120846547Y-83822419D01*
X120769138Y-83861123D01*
X121736757Y-83628895D02*
X121814166Y-83628895D01*
X121891576Y-83667600D01*
X121930280Y-83706304D01*
X121968985Y-83783714D01*
X122007690Y-83938533D01*
X122007690Y-84132057D01*
X121968985Y-84286876D01*
X121930280Y-84364285D01*
X121891576Y-84402990D01*
X121814166Y-84441695D01*
X121736757Y-84441695D01*
X121659347Y-84402990D01*
X121620642Y-84364285D01*
X121581938Y-84286876D01*
X121543233Y-84132057D01*
X121543233Y-83938533D01*
X121581938Y-83783714D01*
X121620642Y-83706304D01*
X121659347Y-83667600D01*
X121736757Y-83628895D01*
X122510852Y-83628895D02*
X122588261Y-83628895D01*
X122665671Y-83667600D01*
X122704376Y-83706304D01*
X122743080Y-83783714D01*
X122781785Y-83938533D01*
X122781785Y-84132057D01*
X122743080Y-84286876D01*
X122704376Y-84364285D01*
X122665671Y-84402990D01*
X122588261Y-84441695D01*
X122510852Y-84441695D01*
X122433442Y-84402990D01*
X122394738Y-84364285D01*
X122356033Y-84286876D01*
X122317328Y-84132057D01*
X122317328Y-83938533D01*
X122356033Y-83783714D01*
X122394738Y-83706304D01*
X122433442Y-83667600D01*
X122510852Y-83628895D01*
X123130128Y-83899828D02*
X123130128Y-84441695D01*
X123130128Y-83977238D02*
X123168833Y-83938533D01*
X123246242Y-83899828D01*
X123362357Y-83899828D01*
X123439766Y-83938533D01*
X123478471Y-84015942D01*
X123478471Y-84441695D01*
X124136452Y-84015942D02*
X123865519Y-84015942D01*
X123865519Y-84441695D02*
X123865519Y-83628895D01*
X124252566Y-83628895D01*
X135119533Y-70394285D02*
X135080828Y-70432990D01*
X134964714Y-70471695D01*
X134887304Y-70471695D01*
X134771190Y-70432990D01*
X134693780Y-70355580D01*
X134655076Y-70278171D01*
X134616371Y-70123352D01*
X134616371Y-70007238D01*
X134655076Y-69852419D01*
X134693780Y-69775009D01*
X134771190Y-69697600D01*
X134887304Y-69658895D01*
X134964714Y-69658895D01*
X135080828Y-69697600D01*
X135119533Y-69736304D01*
X135816219Y-69929828D02*
X135816219Y-70471695D01*
X135622695Y-69620190D02*
X135429171Y-70200761D01*
X135932333Y-70200761D01*
X132034642Y-69074695D02*
X131570185Y-69074695D01*
X131802414Y-69074695D02*
X131802414Y-68261895D01*
X131725004Y-68378009D01*
X131647595Y-68455419D01*
X131570185Y-68494123D01*
X132499100Y-68610238D02*
X132421690Y-68571533D01*
X132382985Y-68532828D01*
X132344280Y-68455419D01*
X132344280Y-68416714D01*
X132382985Y-68339304D01*
X132421690Y-68300600D01*
X132499100Y-68261895D01*
X132653919Y-68261895D01*
X132731328Y-68300600D01*
X132770033Y-68339304D01*
X132808738Y-68416714D01*
X132808738Y-68455419D01*
X132770033Y-68532828D01*
X132731328Y-68571533D01*
X132653919Y-68610238D01*
X132499100Y-68610238D01*
X132421690Y-68648942D01*
X132382985Y-68687647D01*
X132344280Y-68765057D01*
X132344280Y-68919876D01*
X132382985Y-68997285D01*
X132421690Y-69035990D01*
X132499100Y-69074695D01*
X132653919Y-69074695D01*
X132731328Y-69035990D01*
X132770033Y-68997285D01*
X132808738Y-68919876D01*
X132808738Y-68765057D01*
X132770033Y-68687647D01*
X132731328Y-68648942D01*
X132653919Y-68610238D01*
X133157080Y-68532828D02*
X133157080Y-69345628D01*
X133157080Y-68571533D02*
X133234490Y-68532828D01*
X133389309Y-68532828D01*
X133466719Y-68571533D01*
X133505423Y-68610238D01*
X133544128Y-68687647D01*
X133544128Y-68919876D01*
X133505423Y-68997285D01*
X133466719Y-69035990D01*
X133389309Y-69074695D01*
X133234490Y-69074695D01*
X133157080Y-69035990D01*
X134163404Y-68648942D02*
X133892471Y-68648942D01*
X133892471Y-69074695D02*
X133892471Y-68261895D01*
X134279519Y-68261895D01*
X127055033Y-70330785D02*
X127016328Y-70369490D01*
X126900214Y-70408195D01*
X126822804Y-70408195D01*
X126706690Y-70369490D01*
X126629280Y-70292080D01*
X126590576Y-70214671D01*
X126551871Y-70059852D01*
X126551871Y-69943738D01*
X126590576Y-69788919D01*
X126629280Y-69711509D01*
X126706690Y-69634100D01*
X126822804Y-69595395D01*
X126900214Y-69595395D01*
X127016328Y-69634100D01*
X127055033Y-69672804D01*
X127790423Y-69595395D02*
X127403376Y-69595395D01*
X127364671Y-69982442D01*
X127403376Y-69943738D01*
X127480785Y-69905033D01*
X127674309Y-69905033D01*
X127751719Y-69943738D01*
X127790423Y-69982442D01*
X127829128Y-70059852D01*
X127829128Y-70253376D01*
X127790423Y-70330785D01*
X127751719Y-70369490D01*
X127674309Y-70408195D01*
X127480785Y-70408195D01*
X127403376Y-70369490D01*
X127364671Y-70330785D01*
X128516742Y-69125495D02*
X128052285Y-69125495D01*
X128284514Y-69125495D02*
X128284514Y-68312695D01*
X128207104Y-68428809D01*
X128129695Y-68506219D01*
X128052285Y-68544923D01*
X128981200Y-68661038D02*
X128903790Y-68622333D01*
X128865085Y-68583628D01*
X128826380Y-68506219D01*
X128826380Y-68467514D01*
X128865085Y-68390104D01*
X128903790Y-68351400D01*
X128981200Y-68312695D01*
X129136019Y-68312695D01*
X129213428Y-68351400D01*
X129252133Y-68390104D01*
X129290838Y-68467514D01*
X129290838Y-68506219D01*
X129252133Y-68583628D01*
X129213428Y-68622333D01*
X129136019Y-68661038D01*
X128981200Y-68661038D01*
X128903790Y-68699742D01*
X128865085Y-68738447D01*
X128826380Y-68815857D01*
X128826380Y-68970676D01*
X128865085Y-69048085D01*
X128903790Y-69086790D01*
X128981200Y-69125495D01*
X129136019Y-69125495D01*
X129213428Y-69086790D01*
X129252133Y-69048085D01*
X129290838Y-68970676D01*
X129290838Y-68815857D01*
X129252133Y-68738447D01*
X129213428Y-68699742D01*
X129136019Y-68661038D01*
X129639180Y-68583628D02*
X129639180Y-69396428D01*
X129639180Y-68622333D02*
X129716590Y-68583628D01*
X129871409Y-68583628D01*
X129948819Y-68622333D01*
X129987523Y-68661038D01*
X130026228Y-68738447D01*
X130026228Y-68970676D01*
X129987523Y-69048085D01*
X129948819Y-69086790D01*
X129871409Y-69125495D01*
X129716590Y-69125495D01*
X129639180Y-69086790D01*
X130645504Y-68699742D02*
X130374571Y-68699742D01*
X130374571Y-69125495D02*
X130374571Y-68312695D01*
X130761619Y-68312695D01*
X87837433Y-76185485D02*
X87798728Y-76224190D01*
X87682614Y-76262895D01*
X87605204Y-76262895D01*
X87489090Y-76224190D01*
X87411680Y-76146780D01*
X87372976Y-76069371D01*
X87334271Y-75914552D01*
X87334271Y-75798438D01*
X87372976Y-75643619D01*
X87411680Y-75566209D01*
X87489090Y-75488800D01*
X87605204Y-75450095D01*
X87682614Y-75450095D01*
X87798728Y-75488800D01*
X87837433Y-75527504D01*
X88534119Y-75450095D02*
X88379300Y-75450095D01*
X88301890Y-75488800D01*
X88263185Y-75527504D01*
X88185776Y-75643619D01*
X88147071Y-75798438D01*
X88147071Y-76108076D01*
X88185776Y-76185485D01*
X88224480Y-76224190D01*
X88301890Y-76262895D01*
X88456709Y-76262895D01*
X88534119Y-76224190D01*
X88572823Y-76185485D01*
X88611528Y-76108076D01*
X88611528Y-75914552D01*
X88572823Y-75837142D01*
X88534119Y-75798438D01*
X88456709Y-75759733D01*
X88301890Y-75759733D01*
X88224480Y-75798438D01*
X88185776Y-75837142D01*
X88147071Y-75914552D01*
X87807195Y-81204404D02*
X87807195Y-81668861D01*
X87807195Y-81436633D02*
X86994395Y-81436633D01*
X87110509Y-81514042D01*
X87187919Y-81591452D01*
X87226623Y-81668861D01*
X86994395Y-80701242D02*
X86994395Y-80623833D01*
X87033100Y-80546423D01*
X87071804Y-80507719D01*
X87149214Y-80469014D01*
X87304033Y-80430309D01*
X87497557Y-80430309D01*
X87652376Y-80469014D01*
X87729785Y-80507719D01*
X87768490Y-80546423D01*
X87807195Y-80623833D01*
X87807195Y-80701242D01*
X87768490Y-80778652D01*
X87729785Y-80817357D01*
X87652376Y-80856061D01*
X87497557Y-80894766D01*
X87304033Y-80894766D01*
X87149214Y-80856061D01*
X87071804Y-80817357D01*
X87033100Y-80778652D01*
X86994395Y-80701242D01*
X86994395Y-79927147D02*
X86994395Y-79849738D01*
X87033100Y-79772328D01*
X87071804Y-79733623D01*
X87149214Y-79694919D01*
X87304033Y-79656214D01*
X87497557Y-79656214D01*
X87652376Y-79694919D01*
X87729785Y-79733623D01*
X87768490Y-79772328D01*
X87807195Y-79849738D01*
X87807195Y-79927147D01*
X87768490Y-80004557D01*
X87729785Y-80043261D01*
X87652376Y-80081966D01*
X87497557Y-80120671D01*
X87304033Y-80120671D01*
X87149214Y-80081966D01*
X87071804Y-80043261D01*
X87033100Y-80004557D01*
X86994395Y-79927147D01*
X87265328Y-79307871D02*
X87807195Y-79307871D01*
X87342738Y-79307871D02*
X87304033Y-79269166D01*
X87265328Y-79191757D01*
X87265328Y-79075642D01*
X87304033Y-78998233D01*
X87381442Y-78959528D01*
X87807195Y-78959528D01*
X87381442Y-78301547D02*
X87381442Y-78572480D01*
X87807195Y-78572480D02*
X86994395Y-78572480D01*
X86994395Y-78185433D01*
X118863533Y-74140785D02*
X118824828Y-74179490D01*
X118708714Y-74218195D01*
X118631304Y-74218195D01*
X118515190Y-74179490D01*
X118437780Y-74102080D01*
X118399076Y-74024671D01*
X118360371Y-73869852D01*
X118360371Y-73753738D01*
X118399076Y-73598919D01*
X118437780Y-73521509D01*
X118515190Y-73444100D01*
X118631304Y-73405395D01*
X118708714Y-73405395D01*
X118824828Y-73444100D01*
X118863533Y-73482804D01*
X119134466Y-73405395D02*
X119676333Y-73405395D01*
X119327990Y-74218195D01*
X118820595Y-75424695D02*
X118356138Y-75424695D01*
X118588366Y-75424695D02*
X118588366Y-74611895D01*
X118510957Y-74728009D01*
X118433547Y-74805419D01*
X118356138Y-74844123D01*
X119323757Y-74611895D02*
X119401166Y-74611895D01*
X119478576Y-74650600D01*
X119517280Y-74689304D01*
X119555985Y-74766714D01*
X119594690Y-74921533D01*
X119594690Y-75115057D01*
X119555985Y-75269876D01*
X119517280Y-75347285D01*
X119478576Y-75385990D01*
X119401166Y-75424695D01*
X119323757Y-75424695D01*
X119246347Y-75385990D01*
X119207642Y-75347285D01*
X119168938Y-75269876D01*
X119130233Y-75115057D01*
X119130233Y-74921533D01*
X119168938Y-74766714D01*
X119207642Y-74689304D01*
X119246347Y-74650600D01*
X119323757Y-74611895D01*
X120097852Y-74611895D02*
X120175261Y-74611895D01*
X120252671Y-74650600D01*
X120291376Y-74689304D01*
X120330080Y-74766714D01*
X120368785Y-74921533D01*
X120368785Y-75115057D01*
X120330080Y-75269876D01*
X120291376Y-75347285D01*
X120252671Y-75385990D01*
X120175261Y-75424695D01*
X120097852Y-75424695D01*
X120020442Y-75385990D01*
X119981738Y-75347285D01*
X119943033Y-75269876D01*
X119904328Y-75115057D01*
X119904328Y-74921533D01*
X119943033Y-74766714D01*
X119981738Y-74689304D01*
X120020442Y-74650600D01*
X120097852Y-74611895D01*
X120717128Y-74882828D02*
X120717128Y-75424695D01*
X120717128Y-74960238D02*
X120755833Y-74921533D01*
X120833242Y-74882828D01*
X120949357Y-74882828D01*
X121026766Y-74921533D01*
X121065471Y-74998942D01*
X121065471Y-75424695D01*
X121723452Y-74998942D02*
X121452519Y-74998942D01*
X121452519Y-75424695D02*
X121452519Y-74611895D01*
X121839566Y-74611895D01*
X138192933Y-80249485D02*
X138154228Y-80288190D01*
X138038114Y-80326895D01*
X137960704Y-80326895D01*
X137844590Y-80288190D01*
X137767180Y-80210780D01*
X137728476Y-80133371D01*
X137689771Y-79978552D01*
X137689771Y-79862438D01*
X137728476Y-79707619D01*
X137767180Y-79630209D01*
X137844590Y-79552800D01*
X137960704Y-79514095D01*
X138038114Y-79514095D01*
X138154228Y-79552800D01*
X138192933Y-79591504D01*
X138657390Y-79862438D02*
X138579980Y-79823733D01*
X138541276Y-79785028D01*
X138502571Y-79707619D01*
X138502571Y-79668914D01*
X138541276Y-79591504D01*
X138579980Y-79552800D01*
X138657390Y-79514095D01*
X138812209Y-79514095D01*
X138889619Y-79552800D01*
X138928323Y-79591504D01*
X138967028Y-79668914D01*
X138967028Y-79707619D01*
X138928323Y-79785028D01*
X138889619Y-79823733D01*
X138812209Y-79862438D01*
X138657390Y-79862438D01*
X138579980Y-79901142D01*
X138541276Y-79939847D01*
X138502571Y-80017257D01*
X138502571Y-80172076D01*
X138541276Y-80249485D01*
X138579980Y-80288190D01*
X138657390Y-80326895D01*
X138812209Y-80326895D01*
X138889619Y-80288190D01*
X138928323Y-80249485D01*
X138967028Y-80172076D01*
X138967028Y-80017257D01*
X138928323Y-79939847D01*
X138889619Y-79901142D01*
X138812209Y-79862438D01*
X136562495Y-83247895D02*
X136098038Y-83247895D01*
X136330266Y-83247895D02*
X136330266Y-82435095D01*
X136252857Y-82551209D01*
X136175447Y-82628619D01*
X136098038Y-82667323D01*
X137065657Y-82435095D02*
X137143066Y-82435095D01*
X137220476Y-82473800D01*
X137259180Y-82512504D01*
X137297885Y-82589914D01*
X137336590Y-82744733D01*
X137336590Y-82938257D01*
X137297885Y-83093076D01*
X137259180Y-83170485D01*
X137220476Y-83209190D01*
X137143066Y-83247895D01*
X137065657Y-83247895D01*
X136988247Y-83209190D01*
X136949542Y-83170485D01*
X136910838Y-83093076D01*
X136872133Y-82938257D01*
X136872133Y-82744733D01*
X136910838Y-82589914D01*
X136949542Y-82512504D01*
X136988247Y-82473800D01*
X137065657Y-82435095D01*
X137839752Y-82435095D02*
X137917161Y-82435095D01*
X137994571Y-82473800D01*
X138033276Y-82512504D01*
X138071980Y-82589914D01*
X138110685Y-82744733D01*
X138110685Y-82938257D01*
X138071980Y-83093076D01*
X138033276Y-83170485D01*
X137994571Y-83209190D01*
X137917161Y-83247895D01*
X137839752Y-83247895D01*
X137762342Y-83209190D01*
X137723638Y-83170485D01*
X137684933Y-83093076D01*
X137646228Y-82938257D01*
X137646228Y-82744733D01*
X137684933Y-82589914D01*
X137723638Y-82512504D01*
X137762342Y-82473800D01*
X137839752Y-82435095D01*
X138459028Y-82706028D02*
X138459028Y-83247895D01*
X138459028Y-82783438D02*
X138497733Y-82744733D01*
X138575142Y-82706028D01*
X138691257Y-82706028D01*
X138768666Y-82744733D01*
X138807371Y-82822142D01*
X138807371Y-83247895D01*
X139465352Y-82822142D02*
X139194419Y-82822142D01*
X139194419Y-83247895D02*
X139194419Y-82435095D01*
X139581466Y-82435095D01*
X107052533Y-79601785D02*
X107013828Y-79640490D01*
X106897714Y-79679195D01*
X106820304Y-79679195D01*
X106704190Y-79640490D01*
X106626780Y-79563080D01*
X106588076Y-79485671D01*
X106549371Y-79330852D01*
X106549371Y-79214738D01*
X106588076Y-79059919D01*
X106626780Y-78982509D01*
X106704190Y-78905100D01*
X106820304Y-78866395D01*
X106897714Y-78866395D01*
X107013828Y-78905100D01*
X107052533Y-78943804D01*
X107439580Y-79679195D02*
X107594400Y-79679195D01*
X107671809Y-79640490D01*
X107710514Y-79601785D01*
X107787923Y-79485671D01*
X107826628Y-79330852D01*
X107826628Y-79021214D01*
X107787923Y-78943804D01*
X107749219Y-78905100D01*
X107671809Y-78866395D01*
X107516990Y-78866395D01*
X107439580Y-78905100D01*
X107400876Y-78943804D01*
X107362171Y-79021214D01*
X107362171Y-79214738D01*
X107400876Y-79292147D01*
X107439580Y-79330852D01*
X107516990Y-79369557D01*
X107671809Y-79369557D01*
X107749219Y-79330852D01*
X107787923Y-79292147D01*
X107826628Y-79214738D01*
X131239985Y-76236285D02*
X131201280Y-76274990D01*
X131085166Y-76313695D01*
X131007757Y-76313695D01*
X130891642Y-76274990D01*
X130814233Y-76197580D01*
X130775528Y-76120171D01*
X130736823Y-75965352D01*
X130736823Y-75849238D01*
X130775528Y-75694419D01*
X130814233Y-75617009D01*
X130891642Y-75539600D01*
X131007757Y-75500895D01*
X131085166Y-75500895D01*
X131201280Y-75539600D01*
X131239985Y-75578304D01*
X132014080Y-76313695D02*
X131549623Y-76313695D01*
X131781852Y-76313695D02*
X131781852Y-75500895D01*
X131704442Y-75617009D01*
X131627033Y-75694419D01*
X131549623Y-75733123D01*
X132517242Y-75500895D02*
X132594652Y-75500895D01*
X132672061Y-75539600D01*
X132710766Y-75578304D01*
X132749471Y-75655714D01*
X132788176Y-75810533D01*
X132788176Y-76004057D01*
X132749471Y-76158876D01*
X132710766Y-76236285D01*
X132672061Y-76274990D01*
X132594652Y-76313695D01*
X132517242Y-76313695D01*
X132439833Y-76274990D01*
X132401128Y-76236285D01*
X132362423Y-76158876D01*
X132323719Y-76004057D01*
X132323719Y-75810533D01*
X132362423Y-75655714D01*
X132401128Y-75578304D01*
X132439833Y-75539600D01*
X132517242Y-75500895D01*
X133806595Y-76313695D02*
X133342138Y-76313695D01*
X133574366Y-76313695D02*
X133574366Y-75500895D01*
X133496957Y-75617009D01*
X133419547Y-75694419D01*
X133342138Y-75733123D01*
X134309757Y-75500895D02*
X134387166Y-75500895D01*
X134464576Y-75539600D01*
X134503280Y-75578304D01*
X134541985Y-75655714D01*
X134580690Y-75810533D01*
X134580690Y-76004057D01*
X134541985Y-76158876D01*
X134503280Y-76236285D01*
X134464576Y-76274990D01*
X134387166Y-76313695D01*
X134309757Y-76313695D01*
X134232347Y-76274990D01*
X134193642Y-76236285D01*
X134154938Y-76158876D01*
X134116233Y-76004057D01*
X134116233Y-75810533D01*
X134154938Y-75655714D01*
X134193642Y-75578304D01*
X134232347Y-75539600D01*
X134309757Y-75500895D01*
X135083852Y-75500895D02*
X135161261Y-75500895D01*
X135238671Y-75539600D01*
X135277376Y-75578304D01*
X135316080Y-75655714D01*
X135354785Y-75810533D01*
X135354785Y-76004057D01*
X135316080Y-76158876D01*
X135277376Y-76236285D01*
X135238671Y-76274990D01*
X135161261Y-76313695D01*
X135083852Y-76313695D01*
X135006442Y-76274990D01*
X134967738Y-76236285D01*
X134929033Y-76158876D01*
X134890328Y-76004057D01*
X134890328Y-75810533D01*
X134929033Y-75655714D01*
X134967738Y-75578304D01*
X135006442Y-75539600D01*
X135083852Y-75500895D01*
X135703128Y-75771828D02*
X135703128Y-76313695D01*
X135703128Y-75849238D02*
X135741833Y-75810533D01*
X135819242Y-75771828D01*
X135935357Y-75771828D01*
X136012766Y-75810533D01*
X136051471Y-75887942D01*
X136051471Y-76313695D01*
X136709452Y-75887942D02*
X136438519Y-75887942D01*
X136438519Y-76313695D02*
X136438519Y-75500895D01*
X136825566Y-75500895D01*
X87982576Y-93395195D02*
X87982576Y-92582395D01*
X88176100Y-92582395D01*
X88292214Y-92621100D01*
X88369623Y-92698509D01*
X88408328Y-92775919D01*
X88447033Y-92930738D01*
X88447033Y-93046852D01*
X88408328Y-93201671D01*
X88369623Y-93279080D01*
X88292214Y-93356490D01*
X88176100Y-93395195D01*
X87982576Y-93395195D01*
X89221128Y-93395195D02*
X88756671Y-93395195D01*
X88988900Y-93395195D02*
X88988900Y-92582395D01*
X88911490Y-92698509D01*
X88834080Y-92775919D01*
X88756671Y-92814623D01*
X125828576Y-75170695D02*
X125828576Y-74357895D01*
X126022100Y-74357895D01*
X126138214Y-74396600D01*
X126215623Y-74474009D01*
X126254328Y-74551419D01*
X126293033Y-74706238D01*
X126293033Y-74822352D01*
X126254328Y-74977171D01*
X126215623Y-75054580D01*
X126138214Y-75131990D01*
X126022100Y-75170695D01*
X125828576Y-75170695D01*
X126602671Y-74435304D02*
X126641376Y-74396600D01*
X126718785Y-74357895D01*
X126912309Y-74357895D01*
X126989719Y-74396600D01*
X127028423Y-74435304D01*
X127067128Y-74512714D01*
X127067128Y-74590123D01*
X127028423Y-74706238D01*
X126563966Y-75170695D01*
X127067128Y-75170695D01*
X90078076Y-85457695D02*
X90078076Y-84644895D01*
X90271600Y-84644895D01*
X90387714Y-84683600D01*
X90465123Y-84761009D01*
X90503828Y-84838419D01*
X90542533Y-84993238D01*
X90542533Y-85109352D01*
X90503828Y-85264171D01*
X90465123Y-85341580D01*
X90387714Y-85418990D01*
X90271600Y-85457695D01*
X90078076Y-85457695D01*
X90813466Y-84644895D02*
X91316628Y-84644895D01*
X91045695Y-84954533D01*
X91161809Y-84954533D01*
X91239219Y-84993238D01*
X91277923Y-85031942D01*
X91316628Y-85109352D01*
X91316628Y-85302876D01*
X91277923Y-85380285D01*
X91239219Y-85418990D01*
X91161809Y-85457695D01*
X90929580Y-85457695D01*
X90852171Y-85418990D01*
X90813466Y-85380285D01*
X123860076Y-70789195D02*
X123860076Y-69976395D01*
X124053600Y-69976395D01*
X124169714Y-70015100D01*
X124247123Y-70092509D01*
X124285828Y-70169919D01*
X124324533Y-70324738D01*
X124324533Y-70440852D01*
X124285828Y-70595671D01*
X124247123Y-70673080D01*
X124169714Y-70750490D01*
X124053600Y-70789195D01*
X123860076Y-70789195D01*
X125021219Y-70247328D02*
X125021219Y-70789195D01*
X124827695Y-69937690D02*
X124634171Y-70518261D01*
X125137333Y-70518261D01*
X128381276Y-105777695D02*
X128381276Y-104964895D01*
X128574800Y-104964895D01*
X128690914Y-105003600D01*
X128768323Y-105081009D01*
X128807028Y-105158419D01*
X128845733Y-105313238D01*
X128845733Y-105429352D01*
X128807028Y-105584171D01*
X128768323Y-105661580D01*
X128690914Y-105738990D01*
X128574800Y-105777695D01*
X128381276Y-105777695D01*
X129581123Y-104964895D02*
X129194076Y-104964895D01*
X129155371Y-105351942D01*
X129194076Y-105313238D01*
X129271485Y-105274533D01*
X129465009Y-105274533D01*
X129542419Y-105313238D01*
X129581123Y-105351942D01*
X129619828Y-105429352D01*
X129619828Y-105622876D01*
X129581123Y-105700285D01*
X129542419Y-105738990D01*
X129465009Y-105777695D01*
X129271485Y-105777695D01*
X129194076Y-105738990D01*
X129155371Y-105700285D01*
X128330476Y-107606495D02*
X128330476Y-106793695D01*
X128524000Y-106793695D01*
X128640114Y-106832400D01*
X128717523Y-106909809D01*
X128756228Y-106987219D01*
X128794933Y-107142038D01*
X128794933Y-107258152D01*
X128756228Y-107412971D01*
X128717523Y-107490380D01*
X128640114Y-107567790D01*
X128524000Y-107606495D01*
X128330476Y-107606495D01*
X129491619Y-106793695D02*
X129336800Y-106793695D01*
X129259390Y-106832400D01*
X129220685Y-106871104D01*
X129143276Y-106987219D01*
X129104571Y-107142038D01*
X129104571Y-107451676D01*
X129143276Y-107529085D01*
X129181980Y-107567790D01*
X129259390Y-107606495D01*
X129414209Y-107606495D01*
X129491619Y-107567790D01*
X129530323Y-107529085D01*
X129569028Y-107451676D01*
X129569028Y-107258152D01*
X129530323Y-107180742D01*
X129491619Y-107142038D01*
X129414209Y-107103333D01*
X129259390Y-107103333D01*
X129181980Y-107142038D01*
X129143276Y-107180742D01*
X129104571Y-107258152D01*
X128228876Y-109486095D02*
X128228876Y-108673295D01*
X128422400Y-108673295D01*
X128538514Y-108712000D01*
X128615923Y-108789409D01*
X128654628Y-108866819D01*
X128693333Y-109021638D01*
X128693333Y-109137752D01*
X128654628Y-109292571D01*
X128615923Y-109369980D01*
X128538514Y-109447390D01*
X128422400Y-109486095D01*
X128228876Y-109486095D01*
X128964266Y-108673295D02*
X129506133Y-108673295D01*
X129157790Y-109486095D01*
X92185066Y-96207942D02*
X91914133Y-96207942D01*
X91914133Y-96633695D02*
X91914133Y-95820895D01*
X92301180Y-95820895D01*
X93036571Y-96633695D02*
X92572114Y-96633695D01*
X92804342Y-96633695D02*
X92804342Y-95820895D01*
X92726933Y-95937009D01*
X92649523Y-96014419D01*
X92572114Y-96053123D01*
X94924033Y-80822195D02*
X94536985Y-80822195D01*
X94536985Y-80009395D01*
X95620719Y-80822195D02*
X95156261Y-80822195D01*
X95388490Y-80822195D02*
X95388490Y-80009395D01*
X95311080Y-80125509D01*
X95233671Y-80202919D01*
X95156261Y-80241623D01*
X126356533Y-77393195D02*
X126085600Y-77006147D01*
X125892076Y-77393195D02*
X125892076Y-76580395D01*
X126201714Y-76580395D01*
X126279123Y-76619100D01*
X126317828Y-76657804D01*
X126356533Y-76735214D01*
X126356533Y-76851328D01*
X126317828Y-76928738D01*
X126279123Y-76967442D01*
X126201714Y-77006147D01*
X125892076Y-77006147D01*
X127130628Y-77393195D02*
X126666171Y-77393195D01*
X126898400Y-77393195D02*
X126898400Y-76580395D01*
X126820990Y-76696509D01*
X126743580Y-76773919D01*
X126666171Y-76812623D01*
X119941823Y-76597328D02*
X119941823Y-77139195D01*
X119748300Y-76287690D02*
X119554776Y-76868261D01*
X120057938Y-76868261D01*
X120290166Y-76326395D02*
X120832033Y-76326395D01*
X120483690Y-77139195D01*
X121296490Y-76326395D02*
X121373900Y-76326395D01*
X121451309Y-76365100D01*
X121490014Y-76403804D01*
X121528719Y-76481214D01*
X121567423Y-76636033D01*
X121567423Y-76829557D01*
X121528719Y-76984376D01*
X121490014Y-77061785D01*
X121451309Y-77100490D01*
X121373900Y-77139195D01*
X121296490Y-77139195D01*
X121219080Y-77100490D01*
X121180376Y-77061785D01*
X121141671Y-76984376D01*
X121102966Y-76829557D01*
X121102966Y-76636033D01*
X121141671Y-76481214D01*
X121180376Y-76403804D01*
X121219080Y-76365100D01*
X121296490Y-76326395D01*
X122380223Y-77139195D02*
X122109290Y-76752147D01*
X121915766Y-77139195D02*
X121915766Y-76326395D01*
X122225404Y-76326395D01*
X122302814Y-76365100D01*
X122341519Y-76403804D01*
X122380223Y-76481214D01*
X122380223Y-76597328D01*
X122341519Y-76674738D01*
X122302814Y-76713442D01*
X122225404Y-76752147D01*
X121915766Y-76752147D01*
X123943533Y-72440195D02*
X123672600Y-72053147D01*
X123479076Y-72440195D02*
X123479076Y-71627395D01*
X123788714Y-71627395D01*
X123866123Y-71666100D01*
X123904828Y-71704804D01*
X123943533Y-71782214D01*
X123943533Y-71898328D01*
X123904828Y-71975738D01*
X123866123Y-72014442D01*
X123788714Y-72053147D01*
X123479076Y-72053147D01*
X124253171Y-71704804D02*
X124291876Y-71666100D01*
X124369285Y-71627395D01*
X124562809Y-71627395D01*
X124640219Y-71666100D01*
X124678923Y-71704804D01*
X124717628Y-71782214D01*
X124717628Y-71859623D01*
X124678923Y-71975738D01*
X124214466Y-72440195D01*
X124717628Y-72440195D01*
X117401823Y-71644328D02*
X117401823Y-72186195D01*
X117208300Y-71334690D02*
X117014776Y-71915261D01*
X117517938Y-71915261D01*
X117750166Y-71373395D02*
X118292033Y-71373395D01*
X117943690Y-72186195D01*
X118756490Y-71373395D02*
X118833900Y-71373395D01*
X118911309Y-71412100D01*
X118950014Y-71450804D01*
X118988719Y-71528214D01*
X119027423Y-71683033D01*
X119027423Y-71876557D01*
X118988719Y-72031376D01*
X118950014Y-72108785D01*
X118911309Y-72147490D01*
X118833900Y-72186195D01*
X118756490Y-72186195D01*
X118679080Y-72147490D01*
X118640376Y-72108785D01*
X118601671Y-72031376D01*
X118562966Y-71876557D01*
X118562966Y-71683033D01*
X118601671Y-71528214D01*
X118640376Y-71450804D01*
X118679080Y-71412100D01*
X118756490Y-71373395D01*
X119840223Y-72186195D02*
X119569290Y-71799147D01*
X119375766Y-72186195D02*
X119375766Y-71373395D01*
X119685404Y-71373395D01*
X119762814Y-71412100D01*
X119801519Y-71450804D01*
X119840223Y-71528214D01*
X119840223Y-71644328D01*
X119801519Y-71721738D01*
X119762814Y-71760442D01*
X119685404Y-71799147D01*
X119375766Y-71799147D01*
X137888133Y-103644095D02*
X137617200Y-103257047D01*
X137423676Y-103644095D02*
X137423676Y-102831295D01*
X137733314Y-102831295D01*
X137810723Y-102870000D01*
X137849428Y-102908704D01*
X137888133Y-102986114D01*
X137888133Y-103102228D01*
X137849428Y-103179638D01*
X137810723Y-103218342D01*
X137733314Y-103257047D01*
X137423676Y-103257047D01*
X138159066Y-102831295D02*
X138662228Y-102831295D01*
X138391295Y-103140933D01*
X138507409Y-103140933D01*
X138584819Y-103179638D01*
X138623523Y-103218342D01*
X138662228Y-103295752D01*
X138662228Y-103489276D01*
X138623523Y-103566685D01*
X138584819Y-103605390D01*
X138507409Y-103644095D01*
X138275180Y-103644095D01*
X138197771Y-103605390D01*
X138159066Y-103566685D01*
X141061923Y-104788304D02*
X141100628Y-104749600D01*
X141178038Y-104710895D01*
X141371561Y-104710895D01*
X141448971Y-104749600D01*
X141487676Y-104788304D01*
X141526380Y-104865714D01*
X141526380Y-104943123D01*
X141487676Y-105059238D01*
X141023219Y-105523695D01*
X141526380Y-105523695D01*
X142029542Y-104710895D02*
X142106952Y-104710895D01*
X142184361Y-104749600D01*
X142223066Y-104788304D01*
X142261771Y-104865714D01*
X142300476Y-105020533D01*
X142300476Y-105214057D01*
X142261771Y-105368876D01*
X142223066Y-105446285D01*
X142184361Y-105484990D01*
X142106952Y-105523695D01*
X142029542Y-105523695D01*
X141952133Y-105484990D01*
X141913428Y-105446285D01*
X141874723Y-105368876D01*
X141836019Y-105214057D01*
X141836019Y-105020533D01*
X141874723Y-104865714D01*
X141913428Y-104788304D01*
X141952133Y-104749600D01*
X142029542Y-104710895D01*
X142648819Y-105523695D02*
X142648819Y-104710895D01*
X143113276Y-105523695D02*
X142764933Y-105059238D01*
X143113276Y-104710895D02*
X142648819Y-105175352D01*
X136160933Y-103644095D02*
X135890000Y-103257047D01*
X135696476Y-103644095D02*
X135696476Y-102831295D01*
X136006114Y-102831295D01*
X136083523Y-102870000D01*
X136122228Y-102908704D01*
X136160933Y-102986114D01*
X136160933Y-103102228D01*
X136122228Y-103179638D01*
X136083523Y-103218342D01*
X136006114Y-103257047D01*
X135696476Y-103257047D01*
X136857619Y-103102228D02*
X136857619Y-103644095D01*
X136664095Y-102792590D02*
X136470571Y-103373161D01*
X136973733Y-103373161D01*
X139716933Y-103644095D02*
X139446000Y-103257047D01*
X139252476Y-103644095D02*
X139252476Y-102831295D01*
X139562114Y-102831295D01*
X139639523Y-102870000D01*
X139678228Y-102908704D01*
X139716933Y-102986114D01*
X139716933Y-103102228D01*
X139678228Y-103179638D01*
X139639523Y-103218342D01*
X139562114Y-103257047D01*
X139252476Y-103257047D01*
X140452323Y-102831295D02*
X140065276Y-102831295D01*
X140026571Y-103218342D01*
X140065276Y-103179638D01*
X140142685Y-103140933D01*
X140336209Y-103140933D01*
X140413619Y-103179638D01*
X140452323Y-103218342D01*
X140491028Y-103295752D01*
X140491028Y-103489276D01*
X140452323Y-103566685D01*
X140413619Y-103605390D01*
X140336209Y-103644095D01*
X140142685Y-103644095D01*
X140065276Y-103605390D01*
X140026571Y-103566685D01*
X137888133Y-111416495D02*
X137617200Y-111029447D01*
X137423676Y-111416495D02*
X137423676Y-110603695D01*
X137733314Y-110603695D01*
X137810723Y-110642400D01*
X137849428Y-110681104D01*
X137888133Y-110758514D01*
X137888133Y-110874628D01*
X137849428Y-110952038D01*
X137810723Y-110990742D01*
X137733314Y-111029447D01*
X137423676Y-111029447D01*
X138584819Y-110603695D02*
X138430000Y-110603695D01*
X138352590Y-110642400D01*
X138313885Y-110681104D01*
X138236476Y-110797219D01*
X138197771Y-110952038D01*
X138197771Y-111261676D01*
X138236476Y-111339085D01*
X138275180Y-111377790D01*
X138352590Y-111416495D01*
X138507409Y-111416495D01*
X138584819Y-111377790D01*
X138623523Y-111339085D01*
X138662228Y-111261676D01*
X138662228Y-111068152D01*
X138623523Y-110990742D01*
X138584819Y-110952038D01*
X138507409Y-110913333D01*
X138352590Y-110913333D01*
X138275180Y-110952038D01*
X138236476Y-110990742D01*
X138197771Y-111068152D01*
X136160933Y-111416495D02*
X135890000Y-111029447D01*
X135696476Y-111416495D02*
X135696476Y-110603695D01*
X136006114Y-110603695D01*
X136083523Y-110642400D01*
X136122228Y-110681104D01*
X136160933Y-110758514D01*
X136160933Y-110874628D01*
X136122228Y-110952038D01*
X136083523Y-110990742D01*
X136006114Y-111029447D01*
X135696476Y-111029447D01*
X136431866Y-110603695D02*
X136973733Y-110603695D01*
X136625390Y-111416495D01*
X139615333Y-111416495D02*
X139344400Y-111029447D01*
X139150876Y-111416495D02*
X139150876Y-110603695D01*
X139460514Y-110603695D01*
X139537923Y-110642400D01*
X139576628Y-110681104D01*
X139615333Y-110758514D01*
X139615333Y-110874628D01*
X139576628Y-110952038D01*
X139537923Y-110990742D01*
X139460514Y-111029447D01*
X139150876Y-111029447D01*
X140079790Y-110952038D02*
X140002380Y-110913333D01*
X139963676Y-110874628D01*
X139924971Y-110797219D01*
X139924971Y-110758514D01*
X139963676Y-110681104D01*
X140002380Y-110642400D01*
X140079790Y-110603695D01*
X140234609Y-110603695D01*
X140312019Y-110642400D01*
X140350723Y-110681104D01*
X140389428Y-110758514D01*
X140389428Y-110797219D01*
X140350723Y-110874628D01*
X140312019Y-110913333D01*
X140234609Y-110952038D01*
X140079790Y-110952038D01*
X140002380Y-110990742D01*
X139963676Y-111029447D01*
X139924971Y-111106857D01*
X139924971Y-111261676D01*
X139963676Y-111339085D01*
X140002380Y-111377790D01*
X140079790Y-111416495D01*
X140234609Y-111416495D01*
X140312019Y-111377790D01*
X140350723Y-111339085D01*
X140389428Y-111261676D01*
X140389428Y-111106857D01*
X140350723Y-111029447D01*
X140312019Y-110990742D01*
X140234609Y-110952038D01*
X141272380Y-109232095D02*
X140807923Y-109232095D01*
X141040152Y-109232095D02*
X141040152Y-108419295D01*
X140962742Y-108535409D01*
X140885333Y-108612819D01*
X140807923Y-108651523D01*
X141775542Y-108419295D02*
X141852952Y-108419295D01*
X141930361Y-108458000D01*
X141969066Y-108496704D01*
X142007771Y-108574114D01*
X142046476Y-108728933D01*
X142046476Y-108922457D01*
X142007771Y-109077276D01*
X141969066Y-109154685D01*
X141930361Y-109193390D01*
X141852952Y-109232095D01*
X141775542Y-109232095D01*
X141698133Y-109193390D01*
X141659428Y-109154685D01*
X141620723Y-109077276D01*
X141582019Y-108922457D01*
X141582019Y-108728933D01*
X141620723Y-108574114D01*
X141659428Y-108496704D01*
X141698133Y-108458000D01*
X141775542Y-108419295D01*
X142394819Y-109232095D02*
X142394819Y-108419295D01*
X142859276Y-109232095D02*
X142510933Y-108767638D01*
X142859276Y-108419295D02*
X142394819Y-108883752D01*
X112192646Y-132119430D02*
X112308760Y-132158135D01*
X112502284Y-132158135D01*
X112579694Y-132119430D01*
X112618399Y-132080725D01*
X112657103Y-132003316D01*
X112657103Y-131925906D01*
X112618399Y-131848497D01*
X112579694Y-131809792D01*
X112502284Y-131771087D01*
X112347465Y-131732382D01*
X112270056Y-131693678D01*
X112231351Y-131654973D01*
X112192646Y-131577563D01*
X112192646Y-131500154D01*
X112231351Y-131422744D01*
X112270056Y-131384040D01*
X112347465Y-131345335D01*
X112540989Y-131345335D01*
X112657103Y-131384040D01*
X112928037Y-131345335D02*
X113121560Y-132158135D01*
X113276380Y-131577563D01*
X113431199Y-132158135D01*
X113624722Y-131345335D01*
X114360113Y-132158135D02*
X113895656Y-132158135D01*
X114127884Y-132158135D02*
X114127884Y-131345335D01*
X114050475Y-131461449D01*
X113973065Y-131538859D01*
X113895656Y-131577563D01*
X130099646Y-134065070D02*
X130215760Y-134103775D01*
X130409284Y-134103775D01*
X130486694Y-134065070D01*
X130525399Y-134026365D01*
X130564103Y-133948956D01*
X130564103Y-133871546D01*
X130525399Y-133794137D01*
X130486694Y-133755432D01*
X130409284Y-133716727D01*
X130254465Y-133678022D01*
X130177056Y-133639318D01*
X130138351Y-133600613D01*
X130099646Y-133523203D01*
X130099646Y-133445794D01*
X130138351Y-133368384D01*
X130177056Y-133329680D01*
X130254465Y-133290975D01*
X130447989Y-133290975D01*
X130564103Y-133329680D01*
X130835037Y-133290975D02*
X131028560Y-134103775D01*
X131183380Y-133523203D01*
X131338199Y-134103775D01*
X131531722Y-133290975D01*
X131802656Y-133368384D02*
X131841360Y-133329680D01*
X131918770Y-133290975D01*
X132112294Y-133290975D01*
X132189703Y-133329680D01*
X132228408Y-133368384D01*
X132267113Y-133445794D01*
X132267113Y-133523203D01*
X132228408Y-133639318D01*
X131763951Y-134103775D01*
X132267113Y-134103775D01*
X112218046Y-116945470D02*
X112334160Y-116984175D01*
X112527684Y-116984175D01*
X112605094Y-116945470D01*
X112643799Y-116906765D01*
X112682503Y-116829356D01*
X112682503Y-116751946D01*
X112643799Y-116674537D01*
X112605094Y-116635832D01*
X112527684Y-116597127D01*
X112372865Y-116558422D01*
X112295456Y-116519718D01*
X112256751Y-116481013D01*
X112218046Y-116403603D01*
X112218046Y-116326194D01*
X112256751Y-116248784D01*
X112295456Y-116210080D01*
X112372865Y-116171375D01*
X112566389Y-116171375D01*
X112682503Y-116210080D01*
X112953437Y-116171375D02*
X113146960Y-116984175D01*
X113301780Y-116403603D01*
X113456599Y-116984175D01*
X113650122Y-116171375D01*
X113882351Y-116171375D02*
X114385513Y-116171375D01*
X114114580Y-116481013D01*
X114230694Y-116481013D01*
X114308103Y-116519718D01*
X114346808Y-116558422D01*
X114385513Y-116635832D01*
X114385513Y-116829356D01*
X114346808Y-116906765D01*
X114308103Y-116945470D01*
X114230694Y-116984175D01*
X113998465Y-116984175D01*
X113921056Y-116945470D01*
X113882351Y-116906765D01*
X130099646Y-118883490D02*
X130215760Y-118922195D01*
X130409284Y-118922195D01*
X130486694Y-118883490D01*
X130525399Y-118844785D01*
X130564103Y-118767376D01*
X130564103Y-118689966D01*
X130525399Y-118612557D01*
X130486694Y-118573852D01*
X130409284Y-118535147D01*
X130254465Y-118496442D01*
X130177056Y-118457738D01*
X130138351Y-118419033D01*
X130099646Y-118341623D01*
X130099646Y-118264214D01*
X130138351Y-118186804D01*
X130177056Y-118148100D01*
X130254465Y-118109395D01*
X130447989Y-118109395D01*
X130564103Y-118148100D01*
X130835037Y-118109395D02*
X131028560Y-118922195D01*
X131183380Y-118341623D01*
X131338199Y-118922195D01*
X131531722Y-118109395D01*
X132189703Y-118380328D02*
X132189703Y-118922195D01*
X131996180Y-118070690D02*
X131802656Y-118651261D01*
X132305818Y-118651261D01*
X55449046Y-136828590D02*
X55565160Y-136867295D01*
X55758684Y-136867295D01*
X55836094Y-136828590D01*
X55874799Y-136789885D01*
X55913503Y-136712476D01*
X55913503Y-136635066D01*
X55874799Y-136557657D01*
X55836094Y-136518952D01*
X55758684Y-136480247D01*
X55603865Y-136441542D01*
X55526456Y-136402838D01*
X55487751Y-136364133D01*
X55449046Y-136286723D01*
X55449046Y-136209314D01*
X55487751Y-136131904D01*
X55526456Y-136093200D01*
X55603865Y-136054495D01*
X55797389Y-136054495D01*
X55913503Y-136093200D01*
X56184437Y-136054495D02*
X56377960Y-136867295D01*
X56532780Y-136286723D01*
X56687599Y-136867295D01*
X56881122Y-136054495D01*
X57577808Y-136054495D02*
X57190760Y-136054495D01*
X57152056Y-136441542D01*
X57190760Y-136402838D01*
X57268170Y-136364133D01*
X57461694Y-136364133D01*
X57539103Y-136402838D01*
X57577808Y-136441542D01*
X57616513Y-136518952D01*
X57616513Y-136712476D01*
X57577808Y-136789885D01*
X57539103Y-136828590D01*
X57461694Y-136867295D01*
X57268170Y-136867295D01*
X57190760Y-136828590D01*
X57152056Y-136789885D01*
X73635446Y-134999790D02*
X73751560Y-135038495D01*
X73945084Y-135038495D01*
X74022494Y-134999790D01*
X74061199Y-134961085D01*
X74099903Y-134883676D01*
X74099903Y-134806266D01*
X74061199Y-134728857D01*
X74022494Y-134690152D01*
X73945084Y-134651447D01*
X73790265Y-134612742D01*
X73712856Y-134574038D01*
X73674151Y-134535333D01*
X73635446Y-134457923D01*
X73635446Y-134380514D01*
X73674151Y-134303104D01*
X73712856Y-134264400D01*
X73790265Y-134225695D01*
X73983789Y-134225695D01*
X74099903Y-134264400D01*
X74370837Y-134225695D02*
X74564360Y-135038495D01*
X74719180Y-134457923D01*
X74873999Y-135038495D01*
X75067522Y-134225695D01*
X75725503Y-134225695D02*
X75570684Y-134225695D01*
X75493275Y-134264400D01*
X75454570Y-134303104D01*
X75377160Y-134419219D01*
X75338456Y-134574038D01*
X75338456Y-134883676D01*
X75377160Y-134961085D01*
X75415865Y-134999790D01*
X75493275Y-135038495D01*
X75648094Y-135038495D01*
X75725503Y-134999790D01*
X75764208Y-134961085D01*
X75802913Y-134883676D01*
X75802913Y-134690152D01*
X75764208Y-134612742D01*
X75725503Y-134574038D01*
X75648094Y-134535333D01*
X75493275Y-134535333D01*
X75415865Y-134574038D01*
X75377160Y-134612742D01*
X75338456Y-134690152D01*
X91644046Y-133341170D02*
X91760160Y-133379875D01*
X91953684Y-133379875D01*
X92031094Y-133341170D01*
X92069799Y-133302465D01*
X92108503Y-133225056D01*
X92108503Y-133147646D01*
X92069799Y-133070237D01*
X92031094Y-133031532D01*
X91953684Y-132992827D01*
X91798865Y-132954122D01*
X91721456Y-132915418D01*
X91682751Y-132876713D01*
X91644046Y-132799303D01*
X91644046Y-132721894D01*
X91682751Y-132644484D01*
X91721456Y-132605780D01*
X91798865Y-132567075D01*
X91992389Y-132567075D01*
X92108503Y-132605780D01*
X92379437Y-132567075D02*
X92572960Y-133379875D01*
X92727780Y-132799303D01*
X92882599Y-133379875D01*
X93076122Y-132567075D01*
X93308351Y-132567075D02*
X93850218Y-132567075D01*
X93501875Y-133379875D01*
X55449046Y-121314270D02*
X55565160Y-121352975D01*
X55758684Y-121352975D01*
X55836094Y-121314270D01*
X55874799Y-121275565D01*
X55913503Y-121198156D01*
X55913503Y-121120746D01*
X55874799Y-121043337D01*
X55836094Y-121004632D01*
X55758684Y-120965927D01*
X55603865Y-120927222D01*
X55526456Y-120888518D01*
X55487751Y-120849813D01*
X55449046Y-120772403D01*
X55449046Y-120694994D01*
X55487751Y-120617584D01*
X55526456Y-120578880D01*
X55603865Y-120540175D01*
X55797389Y-120540175D01*
X55913503Y-120578880D01*
X56184437Y-120540175D02*
X56377960Y-121352975D01*
X56532780Y-120772403D01*
X56687599Y-121352975D01*
X56881122Y-120540175D01*
X57306875Y-120888518D02*
X57229465Y-120849813D01*
X57190760Y-120811108D01*
X57152056Y-120733699D01*
X57152056Y-120694994D01*
X57190760Y-120617584D01*
X57229465Y-120578880D01*
X57306875Y-120540175D01*
X57461694Y-120540175D01*
X57539103Y-120578880D01*
X57577808Y-120617584D01*
X57616513Y-120694994D01*
X57616513Y-120733699D01*
X57577808Y-120811108D01*
X57539103Y-120849813D01*
X57461694Y-120888518D01*
X57306875Y-120888518D01*
X57229465Y-120927222D01*
X57190760Y-120965927D01*
X57152056Y-121043337D01*
X57152056Y-121198156D01*
X57190760Y-121275565D01*
X57229465Y-121314270D01*
X57306875Y-121352975D01*
X57461694Y-121352975D01*
X57539103Y-121314270D01*
X57577808Y-121275565D01*
X57616513Y-121198156D01*
X57616513Y-121043337D01*
X57577808Y-120965927D01*
X57539103Y-120927222D01*
X57461694Y-120888518D01*
X73635446Y-119485470D02*
X73751560Y-119524175D01*
X73945084Y-119524175D01*
X74022494Y-119485470D01*
X74061199Y-119446765D01*
X74099903Y-119369356D01*
X74099903Y-119291946D01*
X74061199Y-119214537D01*
X74022494Y-119175832D01*
X73945084Y-119137127D01*
X73790265Y-119098422D01*
X73712856Y-119059718D01*
X73674151Y-119021013D01*
X73635446Y-118943603D01*
X73635446Y-118866194D01*
X73674151Y-118788784D01*
X73712856Y-118750080D01*
X73790265Y-118711375D01*
X73983789Y-118711375D01*
X74099903Y-118750080D01*
X74370837Y-118711375D02*
X74564360Y-119524175D01*
X74719180Y-118943603D01*
X74873999Y-119524175D01*
X75067522Y-118711375D01*
X75415865Y-119524175D02*
X75570684Y-119524175D01*
X75648094Y-119485470D01*
X75686799Y-119446765D01*
X75764208Y-119330651D01*
X75802913Y-119175832D01*
X75802913Y-118866194D01*
X75764208Y-118788784D01*
X75725503Y-118750080D01*
X75648094Y-118711375D01*
X75493275Y-118711375D01*
X75415865Y-118750080D01*
X75377160Y-118788784D01*
X75338456Y-118866194D01*
X75338456Y-119059718D01*
X75377160Y-119137127D01*
X75415865Y-119175832D01*
X75493275Y-119214537D01*
X75648094Y-119214537D01*
X75725503Y-119175832D01*
X75764208Y-119137127D01*
X75802913Y-119059718D01*
X91256999Y-117816690D02*
X91373113Y-117855395D01*
X91566637Y-117855395D01*
X91644046Y-117816690D01*
X91682751Y-117777985D01*
X91721456Y-117700576D01*
X91721456Y-117623166D01*
X91682751Y-117545757D01*
X91644046Y-117507052D01*
X91566637Y-117468347D01*
X91411818Y-117429642D01*
X91334408Y-117390938D01*
X91295703Y-117352233D01*
X91256999Y-117274823D01*
X91256999Y-117197414D01*
X91295703Y-117120004D01*
X91334408Y-117081300D01*
X91411818Y-117042595D01*
X91605341Y-117042595D01*
X91721456Y-117081300D01*
X91992389Y-117042595D02*
X92185913Y-117855395D01*
X92340732Y-117274823D01*
X92495551Y-117855395D01*
X92689075Y-117042595D01*
X93424465Y-117855395D02*
X92960008Y-117855395D01*
X93192237Y-117855395D02*
X93192237Y-117042595D01*
X93114827Y-117158709D01*
X93037418Y-117236119D01*
X92960008Y-117274823D01*
X93927627Y-117042595D02*
X94005037Y-117042595D01*
X94082446Y-117081300D01*
X94121151Y-117120004D01*
X94159856Y-117197414D01*
X94198560Y-117352233D01*
X94198560Y-117545757D01*
X94159856Y-117700576D01*
X94121151Y-117777985D01*
X94082446Y-117816690D01*
X94005037Y-117855395D01*
X93927627Y-117855395D01*
X93850218Y-117816690D01*
X93811513Y-117777985D01*
X93772808Y-117700576D01*
X93734103Y-117545757D01*
X93734103Y-117352233D01*
X93772808Y-117197414D01*
X93811513Y-117120004D01*
X93850218Y-117081300D01*
X93927627Y-117042595D01*
X56966999Y-101004430D02*
X57083113Y-101043135D01*
X57276637Y-101043135D01*
X57354046Y-101004430D01*
X57392751Y-100965725D01*
X57431456Y-100888316D01*
X57431456Y-100810906D01*
X57392751Y-100733497D01*
X57354046Y-100694792D01*
X57276637Y-100656087D01*
X57121818Y-100617382D01*
X57044408Y-100578678D01*
X57005703Y-100539973D01*
X56966999Y-100462563D01*
X56966999Y-100385154D01*
X57005703Y-100307744D01*
X57044408Y-100269040D01*
X57121818Y-100230335D01*
X57315341Y-100230335D01*
X57431456Y-100269040D01*
X57702389Y-100230335D02*
X57895913Y-101043135D01*
X58050732Y-100462563D01*
X58205551Y-101043135D01*
X58399075Y-100230335D01*
X59134465Y-101043135D02*
X58670008Y-101043135D01*
X58902237Y-101043135D02*
X58902237Y-100230335D01*
X58824827Y-100346449D01*
X58747418Y-100423859D01*
X58670008Y-100462563D01*
X59908560Y-101043135D02*
X59444103Y-101043135D01*
X59676332Y-101043135D02*
X59676332Y-100230335D01*
X59598922Y-100346449D01*
X59521513Y-100423859D01*
X59444103Y-100462563D01*
X79217399Y-98169790D02*
X79333513Y-98208495D01*
X79527037Y-98208495D01*
X79604446Y-98169790D01*
X79643151Y-98131085D01*
X79681856Y-98053676D01*
X79681856Y-97976266D01*
X79643151Y-97898857D01*
X79604446Y-97860152D01*
X79527037Y-97821447D01*
X79372218Y-97782742D01*
X79294808Y-97744038D01*
X79256103Y-97705333D01*
X79217399Y-97627923D01*
X79217399Y-97550514D01*
X79256103Y-97473104D01*
X79294808Y-97434400D01*
X79372218Y-97395695D01*
X79565741Y-97395695D01*
X79681856Y-97434400D01*
X79952789Y-97395695D02*
X80146313Y-98208495D01*
X80301132Y-97627923D01*
X80455951Y-98208495D01*
X80649475Y-97395695D01*
X81384865Y-98208495D02*
X80920408Y-98208495D01*
X81152637Y-98208495D02*
X81152637Y-97395695D01*
X81075227Y-97511809D01*
X80997818Y-97589219D01*
X80920408Y-97627923D01*
X81694503Y-97473104D02*
X81733208Y-97434400D01*
X81810618Y-97395695D01*
X82004141Y-97395695D01*
X82081551Y-97434400D01*
X82120256Y-97473104D01*
X82158960Y-97550514D01*
X82158960Y-97627923D01*
X82120256Y-97744038D01*
X81655799Y-98208495D01*
X82158960Y-98208495D01*
X131998599Y-96645790D02*
X132114713Y-96684495D01*
X132308237Y-96684495D01*
X132385646Y-96645790D01*
X132424351Y-96607085D01*
X132463056Y-96529676D01*
X132463056Y-96452266D01*
X132424351Y-96374857D01*
X132385646Y-96336152D01*
X132308237Y-96297447D01*
X132153418Y-96258742D01*
X132076008Y-96220038D01*
X132037303Y-96181333D01*
X131998599Y-96103923D01*
X131998599Y-96026514D01*
X132037303Y-95949104D01*
X132076008Y-95910400D01*
X132153418Y-95871695D01*
X132346941Y-95871695D01*
X132463056Y-95910400D01*
X132733989Y-95871695D02*
X132927513Y-96684495D01*
X133082332Y-96103923D01*
X133237151Y-96684495D01*
X133430675Y-95871695D01*
X134166065Y-96684495D02*
X133701608Y-96684495D01*
X133933837Y-96684495D02*
X133933837Y-95871695D01*
X133856427Y-95987809D01*
X133779018Y-96065219D01*
X133701608Y-96103923D01*
X134436999Y-95871695D02*
X134940160Y-95871695D01*
X134669227Y-96181333D01*
X134785341Y-96181333D01*
X134862751Y-96220038D01*
X134901456Y-96258742D01*
X134940160Y-96336152D01*
X134940160Y-96529676D01*
X134901456Y-96607085D01*
X134862751Y-96645790D01*
X134785341Y-96684495D01*
X134553113Y-96684495D01*
X134475703Y-96645790D01*
X134436999Y-96607085D01*
X114472599Y-96645790D02*
X114588713Y-96684495D01*
X114782237Y-96684495D01*
X114859646Y-96645790D01*
X114898351Y-96607085D01*
X114937056Y-96529676D01*
X114937056Y-96452266D01*
X114898351Y-96374857D01*
X114859646Y-96336152D01*
X114782237Y-96297447D01*
X114627418Y-96258742D01*
X114550008Y-96220038D01*
X114511303Y-96181333D01*
X114472599Y-96103923D01*
X114472599Y-96026514D01*
X114511303Y-95949104D01*
X114550008Y-95910400D01*
X114627418Y-95871695D01*
X114820941Y-95871695D01*
X114937056Y-95910400D01*
X115207989Y-95871695D02*
X115401513Y-96684495D01*
X115556332Y-96103923D01*
X115711151Y-96684495D01*
X115904675Y-95871695D01*
X116640065Y-96684495D02*
X116175608Y-96684495D01*
X116407837Y-96684495D02*
X116407837Y-95871695D01*
X116330427Y-95987809D01*
X116253018Y-96065219D01*
X116175608Y-96103923D01*
X117336751Y-96142628D02*
X117336751Y-96684495D01*
X117143227Y-95832990D02*
X116949703Y-96413561D01*
X117452865Y-96413561D01*
X115649223Y-81088895D02*
X115649223Y-81746876D01*
X115687928Y-81824285D01*
X115726633Y-81862990D01*
X115804042Y-81901695D01*
X115958861Y-81901695D01*
X116036271Y-81862990D01*
X116074976Y-81824285D01*
X116113680Y-81746876D01*
X116113680Y-81088895D01*
X116926480Y-81901695D02*
X116462023Y-81901695D01*
X116694252Y-81901695D02*
X116694252Y-81088895D01*
X116616842Y-81205009D01*
X116539433Y-81282419D01*
X116462023Y-81321123D01*
X130444723Y-81152395D02*
X130444723Y-81810376D01*
X130483428Y-81887785D01*
X130522133Y-81926490D01*
X130599542Y-81965195D01*
X130754361Y-81965195D01*
X130831771Y-81926490D01*
X130870476Y-81887785D01*
X130909180Y-81810376D01*
X130909180Y-81152395D01*
X131257523Y-81229804D02*
X131296228Y-81191100D01*
X131373638Y-81152395D01*
X131567161Y-81152395D01*
X131644571Y-81191100D01*
X131683276Y-81229804D01*
X131721980Y-81307214D01*
X131721980Y-81384623D01*
X131683276Y-81500738D01*
X131218819Y-81965195D01*
X131721980Y-81965195D01*
X82057119Y-80199895D02*
X82328052Y-81012695D01*
X82598985Y-80199895D01*
X83334376Y-81012695D02*
X83063442Y-80625647D01*
X82869919Y-81012695D02*
X82869919Y-80199895D01*
X83179557Y-80199895D01*
X83256966Y-80238600D01*
X83295671Y-80277304D01*
X83334376Y-80354714D01*
X83334376Y-80470828D01*
X83295671Y-80548238D01*
X83256966Y-80586942D01*
X83179557Y-80625647D01*
X82869919Y-80625647D01*
X84108471Y-81012695D02*
X83644014Y-81012695D01*
X83876242Y-81012695D02*
X83876242Y-80199895D01*
X83798833Y-80316009D01*
X83721423Y-80393419D01*
X83644014Y-80432123D01*
X112219619Y-72198895D02*
X112490552Y-73011695D01*
X112761485Y-72198895D01*
X113496876Y-73011695D02*
X113225942Y-72624647D01*
X113032419Y-73011695D02*
X113032419Y-72198895D01*
X113342057Y-72198895D01*
X113419466Y-72237600D01*
X113458171Y-72276304D01*
X113496876Y-72353714D01*
X113496876Y-72469828D01*
X113458171Y-72547238D01*
X113419466Y-72585942D01*
X113342057Y-72624647D01*
X113032419Y-72624647D01*
X113806514Y-72276304D02*
X113845219Y-72237600D01*
X113922628Y-72198895D01*
X114116152Y-72198895D01*
X114193561Y-72237600D01*
X114232266Y-72276304D01*
X114270971Y-72353714D01*
X114270971Y-72431123D01*
X114232266Y-72547238D01*
X113767809Y-73011695D01*
X114270971Y-73011695D01*
X130342519Y-72325895D02*
X130884385Y-73138695D01*
X130884385Y-72325895D02*
X130342519Y-73138695D01*
X131619776Y-73138695D02*
X131155319Y-73138695D01*
X131387547Y-73138695D02*
X131387547Y-72325895D01*
X131310138Y-72442009D01*
X131232728Y-72519419D01*
X131155319Y-72558123D01*
M02*
