G04 #@! TF.FileFunction,Soldermask,Bot*
%FSLAX46Y46*%
G04 Gerber Fmt 4.6, Leading zero omitted, Abs format (unit mm)*
G04 Created by KiCad (PCBNEW (2016-07-28 BZR 6996, Git e15ad93)-product) date Thu Oct 20 17:42:39 2016*
%MOMM*%
%LPD*%
G01*
G04 APERTURE LIST*
%ADD10C,0.100000*%
%ADD11R,3.023820X3.023820*%
%ADD12C,3.023820*%
%ADD13C,3.399740*%
%ADD14R,2.178000X2.178000*%
%ADD15C,2.178000*%
%ADD16C,1.418540*%
%ADD17R,2.498040X2.498040*%
%ADD18C,2.498040*%
%ADD19C,2.198320*%
%ADD20R,1.924000X1.924000*%
%ADD21C,1.924000*%
%ADD22C,4.900000*%
G04 APERTURE END LIST*
D10*
D11*
X94554040Y-98739960D03*
D12*
X98552000Y-98739960D03*
X102549960Y-98739960D03*
X96553020Y-94742000D03*
X100550980Y-94742000D03*
X94554040Y-90744040D03*
X98552000Y-90744040D03*
X102549960Y-90744040D03*
D13*
X84853780Y-105539540D03*
X112250220Y-105539540D03*
X113751360Y-87442040D03*
X83352640Y-87442040D03*
D14*
X120439180Y-139951460D03*
D15*
X117441980Y-139951460D03*
X114444780Y-139951460D03*
X111447580Y-139951460D03*
X108450380Y-139951460D03*
X120439180Y-142948660D03*
X117441980Y-142948660D03*
X114444780Y-142948660D03*
X111447580Y-142948660D03*
X108450380Y-142948660D03*
D16*
X123444000Y-143891000D03*
X105445560Y-143891000D03*
D17*
X106248200Y-129199640D03*
D18*
X118745000Y-129199640D03*
X106248200Y-134198360D03*
X118745000Y-134198360D03*
D19*
X112496600Y-127200660D03*
X112496600Y-136197340D03*
D17*
X124155200Y-131145280D03*
D18*
X136652000Y-131145280D03*
X124155200Y-136144000D03*
X136652000Y-136144000D03*
D19*
X130403600Y-129146300D03*
X130403600Y-138142980D03*
D17*
X106273600Y-114025680D03*
D18*
X118770400Y-114025680D03*
X106273600Y-119024400D03*
X118770400Y-119024400D03*
D19*
X112522000Y-112026700D03*
X112522000Y-121023380D03*
D17*
X124155200Y-115963700D03*
D18*
X136652000Y-115963700D03*
X124155200Y-120962420D03*
X136652000Y-120962420D03*
D19*
X130403600Y-113964720D03*
X130403600Y-122961400D03*
D17*
X49504600Y-133908800D03*
D18*
X62001400Y-133908800D03*
X49504600Y-138907520D03*
X62001400Y-138907520D03*
D19*
X55753000Y-131909820D03*
X55753000Y-140906500D03*
D17*
X67691000Y-132080000D03*
D18*
X80187800Y-132080000D03*
X67691000Y-137078720D03*
X80187800Y-137078720D03*
D19*
X73939400Y-130081020D03*
X73939400Y-139077700D03*
D17*
X85699600Y-130421380D03*
D18*
X98196400Y-130421380D03*
X85699600Y-135420100D03*
X98196400Y-135420100D03*
D19*
X91948000Y-128422400D03*
X91948000Y-137419080D03*
D17*
X49504600Y-118394480D03*
D18*
X62001400Y-118394480D03*
X49504600Y-123393200D03*
X62001400Y-123393200D03*
D19*
X55753000Y-116395500D03*
X55753000Y-125392180D03*
D17*
X67691000Y-116565680D03*
D18*
X80187800Y-116565680D03*
X67691000Y-121564400D03*
X80187800Y-121564400D03*
D19*
X73939400Y-114566700D03*
X73939400Y-123563380D03*
D17*
X85699600Y-114896900D03*
D18*
X98196400Y-114896900D03*
X85699600Y-119895620D03*
X98196400Y-119895620D03*
D19*
X91948000Y-112897920D03*
X91948000Y-121894600D03*
D17*
X51409600Y-98084640D03*
D18*
X63906400Y-98084640D03*
X51409600Y-103083360D03*
X63906400Y-103083360D03*
D19*
X57658000Y-96085660D03*
X57658000Y-105082340D03*
D17*
X73660000Y-95250000D03*
D18*
X86156800Y-95250000D03*
X73660000Y-100248720D03*
X86156800Y-100248720D03*
D19*
X79908400Y-93251020D03*
X79908400Y-102247700D03*
D17*
X126441200Y-93726000D03*
D18*
X138938000Y-93726000D03*
X126441200Y-98724720D03*
X138938000Y-98724720D03*
D19*
X132689600Y-91727020D03*
X132689600Y-100723700D03*
D17*
X108915200Y-93726000D03*
D18*
X121412000Y-93726000D03*
X108915200Y-98724720D03*
X121412000Y-98724720D03*
D19*
X115163600Y-91727020D03*
X115163600Y-100723700D03*
D20*
X65481200Y-87731600D03*
D21*
X65481200Y-85191600D03*
X62941200Y-87731600D03*
X62941200Y-85191600D03*
X60401200Y-87731600D03*
X60401200Y-85191600D03*
X57861200Y-87731600D03*
X57861200Y-85191600D03*
D22*
X140503660Y-70519540D03*
X49612800Y-84918800D03*
X48516800Y-142973800D03*
X142465800Y-142973800D03*
M02*
