G04 #@! TF.GenerationSoftware,KiCad,Pcbnew,(2017-01-11 revision e99b79cb2)-master*
G04 #@! TF.CreationDate,2017-10-24T08:44:47+03:00*
G04 #@! TF.ProjectId,right_keypad,72696768745F6B65797061642E6B6963,rev?*
G04 #@! TF.FileFunction,Soldermask,Bot*
G04 #@! TF.FilePolarity,Negative*
%FSLAX46Y46*%
G04 Gerber Fmt 4.6, Leading zero omitted, Abs format (unit mm)*
G04 Created by KiCad (PCBNEW (2017-01-11 revision e99b79cb2)-master) date Tue Oct 24 08:44:47 2017*
%MOMM*%
%LPD*%
G01*
G04 APERTURE LIST*
%ADD10C,0.100000*%
%ADD11R,2.178000X2.178000*%
%ADD12C,2.178000*%
%ADD13C,1.418540*%
%ADD14R,2.498040X2.498040*%
%ADD15C,2.498040*%
%ADD16C,2.198320*%
%ADD17R,3.023820X3.023820*%
%ADD18C,3.023820*%
%ADD19C,3.399740*%
%ADD20R,1.924000X1.924000*%
%ADD21C,1.924000*%
%ADD22C,4.900000*%
G04 APERTURE END LIST*
D10*
D11*
X91135200Y-134010400D03*
D12*
X88138000Y-134010400D03*
X85140800Y-134010400D03*
X82143600Y-134010400D03*
X79146400Y-134010400D03*
X91135200Y-137007600D03*
X88138000Y-137007600D03*
X85140800Y-137007600D03*
X82143600Y-137007600D03*
X79146400Y-137007600D03*
D13*
X94140020Y-137949940D03*
X76141580Y-137949940D03*
D14*
X101384100Y-124388880D03*
D15*
X113880900Y-124388880D03*
X101384100Y-129387600D03*
X113880900Y-129387600D03*
D16*
X107632500Y-122389900D03*
X107632500Y-131386580D03*
D17*
X97030540Y-92707460D03*
D18*
X101028500Y-92707460D03*
X105026460Y-92707460D03*
X99029520Y-88709500D03*
X103027480Y-88709500D03*
X97030540Y-84711540D03*
X101028500Y-84711540D03*
X105026460Y-84711540D03*
D19*
X87330280Y-99507040D03*
X114726720Y-99507040D03*
X116227860Y-81409540D03*
X85829140Y-81409540D03*
D14*
X80835500Y-123167140D03*
D15*
X93332300Y-123167140D03*
X80835500Y-128165860D03*
X93332300Y-128165860D03*
D16*
X87083900Y-121168160D03*
X87083900Y-130164840D03*
D14*
X80810100Y-107993180D03*
D15*
X93306900Y-107993180D03*
X80810100Y-112991900D03*
X93306900Y-112991900D03*
D16*
X87058500Y-105994200D03*
X87058500Y-114990880D03*
D14*
X62928500Y-109931200D03*
D15*
X75425300Y-109931200D03*
X62928500Y-114929920D03*
X75425300Y-114929920D03*
D16*
X69176900Y-107932220D03*
X69176900Y-116928900D03*
D14*
X137579100Y-127876300D03*
D15*
X150075900Y-127876300D03*
X137579100Y-132875020D03*
X150075900Y-132875020D03*
D16*
X143827500Y-125877320D03*
X143827500Y-134874000D03*
D14*
X119392700Y-126047500D03*
D15*
X131889500Y-126047500D03*
X119392700Y-131046220D03*
X131889500Y-131046220D03*
D16*
X125641100Y-124048520D03*
X125641100Y-133045200D03*
D14*
X137579100Y-112361980D03*
D15*
X150075900Y-112361980D03*
X137579100Y-117360700D03*
X150075900Y-117360700D03*
D16*
X143827500Y-110363000D03*
X143827500Y-119359680D03*
D14*
X119392700Y-110533180D03*
D15*
X131889500Y-110533180D03*
X119392700Y-115531900D03*
X131889500Y-115531900D03*
D16*
X125641100Y-108534200D03*
X125641100Y-117530880D03*
D14*
X101384100Y-108864400D03*
D15*
X113880900Y-108864400D03*
X101384100Y-113863120D03*
X113880900Y-113863120D03*
D16*
X107632500Y-106865420D03*
X107632500Y-115862100D03*
D14*
X135674100Y-92052140D03*
D15*
X148170900Y-92052140D03*
X135674100Y-97050860D03*
X148170900Y-97050860D03*
D16*
X141922500Y-90053160D03*
X141922500Y-99049840D03*
D14*
X113423700Y-89217500D03*
D15*
X125920500Y-89217500D03*
X113423700Y-94216220D03*
X125920500Y-94216220D03*
D16*
X119672100Y-87218520D03*
X119672100Y-96215200D03*
D14*
X60642500Y-87693500D03*
D15*
X73139300Y-87693500D03*
X60642500Y-92692220D03*
X73139300Y-92692220D03*
D16*
X66890900Y-85694520D03*
X66890900Y-94691200D03*
D14*
X78168500Y-87693500D03*
D15*
X90665300Y-87693500D03*
X78168500Y-92692220D03*
X90665300Y-92692220D03*
D16*
X84416900Y-85694520D03*
X84416900Y-94691200D03*
D20*
X134213600Y-80518000D03*
D21*
X134213600Y-83058000D03*
X136753600Y-80518000D03*
X136753600Y-83058000D03*
X139293600Y-80518000D03*
X139293600Y-83058000D03*
X141833600Y-80518000D03*
X141833600Y-83058000D03*
D22*
X149967700Y-78886300D03*
X59076840Y-64487040D03*
X57114700Y-136941300D03*
X151063700Y-136941300D03*
D14*
X62928500Y-125112780D03*
D15*
X75425300Y-125112780D03*
X62928500Y-130111500D03*
X75425300Y-130111500D03*
D16*
X69176900Y-123113800D03*
X69176900Y-132110480D03*
M02*
