M48
;DRILL file {KiCad (2017-01-11 revision e99b79cb2)-master} date Tue Oct 24 08:44:49 2017
;FORMAT={-:-/ absolute / metric / decimal}
FMAT,2
METRIC,TZ
T1C0.400
T2C1.016
T3C1.019
T4C1.400
T5C1.748
T6C1.798
T7C1.999
T8C3.000
%
G90
G05
M71
T1
X55.677Y-66.7
X56.083Y-72.644
X56.134Y-113.944
X56.185Y-129.642
X58.268Y-86.004
X58.318Y-81.293
X58.369Y-69.647
X60.198Y-97.18
X61.634Y-70.992
X62.128Y-97.18
X62.179Y-107.798
X62.433Y-92.1
X63.082Y-91.288
X63.144Y-61.265
X63.144Y-90.068
X63.398Y-136.703
X63.602Y-89.002
X64.11Y-97.028
X65.329Y-105.308
X65.735Y-92.862
X65.989Y-90.678
X66.599Y-76.708
X66.599Y-89.357
X66.7Y-92.05
X66.877Y-74.963
X67.208Y-80.772
X67.412Y-61.468
X67.818Y-76.048
X67.97Y-71.526
X68.275Y-64.465
X70.409Y-84.277
X72.937Y-71.985
X72.941Y-79.721
X73.859Y-72.372
X73.863Y-81.331
X74.27Y-135.941
X74.625Y-78.486
X74.778Y-82.042
X75.691Y-74.384
X76.564Y-73.675
X78.537Y-65.227
X79.35Y-65.989
X79.502Y-75.641
X79.705Y-68.732
X80.315Y-79.197
X80.874Y-64.11
X81.839Y-64.11
X85.29Y-74.324
X88.443Y-84.938
X88.748Y-75.692
X90.475Y-71.831
X90.576Y-79.096
X92.964Y-77.47
X94.132Y-89.764
X94.234Y-100.127
X94.386Y-83.464
X96.52Y-138.735
X98.095Y-68.58
X104.902Y-103.327
X106.832Y-88.544
X108.661Y-75.895
X110.642Y-79.045
X110.846Y-97.892
X111.049Y-84.277
X112.065Y-138.735
X117.805Y-72.085
X118.974Y-73.457
X120.142Y-76.403
X121.361Y-71.78
X122.834Y-79.959
X124.409Y-83.922
X124.562Y-77.267
X126.695Y-80.213
X129.286Y-138.735
X131.521Y-73.152
X133.248Y-73.406
X134.976Y-73.558
X146.558Y-76.251
X147.066Y-138.938
X147.726Y-131.42
X152.705Y-88.138
X152.908Y-101.752
X152.959Y-127.711
X153.01Y-114.351
T2
X134.214Y-80.518
X134.214Y-83.058
X136.754Y-80.518
X136.754Y-83.058
X139.294Y-80.518
X139.294Y-83.058
X141.834Y-80.518
X141.834Y-83.058
T3
X76.142Y-137.95
X79.146Y-134.01
X79.146Y-137.008
X82.144Y-134.01
X82.144Y-137.008
X85.141Y-134.01
X85.141Y-137.008
X88.138Y-134.01
X88.138Y-137.008
X91.135Y-134.01
X91.135Y-137.008
X94.14Y-137.95
T4
X60.642Y-87.694
X60.642Y-92.692
X62.928Y-109.931
X62.928Y-114.93
X62.928Y-125.113
X62.928Y-130.112
X73.139Y-87.694
X73.139Y-92.692
X75.425Y-109.931
X75.425Y-114.93
X75.425Y-125.113
X75.425Y-130.112
X78.168Y-87.694
X78.168Y-92.692
X80.81Y-107.993
X80.81Y-112.992
X80.835Y-123.167
X80.835Y-128.166
X90.665Y-87.694
X90.665Y-92.692
X93.307Y-107.993
X93.307Y-112.992
X93.332Y-123.167
X93.332Y-128.166
X101.384Y-108.864
X101.384Y-113.863
X101.384Y-124.389
X101.384Y-129.388
X113.424Y-89.218
X113.424Y-94.216
X113.881Y-108.864
X113.881Y-113.863
X113.881Y-124.389
X113.881Y-129.388
X119.393Y-110.533
X119.393Y-115.532
X119.393Y-126.047
X119.393Y-131.046
X125.92Y-89.218
X125.92Y-94.216
X131.889Y-110.533
X131.889Y-115.532
X131.889Y-126.047
X131.889Y-131.046
X135.674Y-92.052
X135.674Y-97.051
X137.579Y-112.362
X137.579Y-117.361
X137.579Y-127.876
X137.579Y-132.875
X148.171Y-92.052
X148.171Y-97.051
X150.076Y-112.362
X150.076Y-117.361
X150.076Y-127.876
X150.076Y-132.875
T5
X97.031Y-84.712
X97.031Y-92.707
X99.03Y-88.709
X101.028Y-84.712
X101.028Y-92.707
X103.027Y-88.709
X105.026Y-84.712
X105.026Y-92.707
T6
X66.891Y-85.695
X66.891Y-94.691
X69.177Y-107.932
X69.177Y-116.929
X69.177Y-123.114
X69.177Y-132.11
X84.417Y-85.695
X84.417Y-94.691
X87.058Y-105.994
X87.058Y-114.991
X87.084Y-121.168
X87.084Y-130.165
X107.632Y-106.865
X107.632Y-115.862
X107.632Y-122.39
X107.632Y-131.387
X119.672Y-87.219
X119.672Y-96.215
X125.641Y-108.534
X125.641Y-117.531
X125.641Y-124.049
X125.641Y-133.045
X141.922Y-90.053
X141.922Y-99.05
X143.827Y-110.363
X143.827Y-119.36
X143.827Y-125.877
X143.827Y-134.874
T7
X85.829Y-81.41
X87.33Y-99.507
X114.727Y-99.507
X116.228Y-81.41
T8
X57.115Y-136.941
X59.077Y-64.487
X149.968Y-78.886
X151.064Y-136.941
T0
M30
