G04 #@! TF.GenerationSoftware,KiCad,Pcbnew,(2017-01-11 revision e99b79cb2)-master*
G04 #@! TF.CreationDate,2017-10-24T08:44:47+03:00*
G04 #@! TF.ProjectId,right_keypad,72696768745F6B65797061642E6B6963,rev?*
G04 #@! TF.FileFunction,Soldermask,Top*
G04 #@! TF.FilePolarity,Negative*
%FSLAX46Y46*%
G04 Gerber Fmt 4.6, Leading zero omitted, Abs format (unit mm)*
G04 Created by KiCad (PCBNEW (2017-01-11 revision e99b79cb2)-master) date Tue Oct 24 08:44:47 2017*
%MOMM*%
%LPD*%
G01*
G04 APERTURE LIST*
%ADD10C,0.100000*%
%ADD11R,2.178000X2.178000*%
%ADD12C,2.178000*%
%ADD13C,1.418540*%
%ADD14R,2.498040X2.498040*%
%ADD15C,2.498040*%
%ADD16C,2.198320*%
%ADD17R,1.339800X1.162000*%
%ADD18R,1.398220X4.397960*%
%ADD19R,1.162000X1.339800*%
%ADD20R,2.579320X2.017980*%
%ADD21R,1.697940X1.799540*%
%ADD22R,3.023820X3.023820*%
%ADD23C,3.023820*%
%ADD24C,3.399740*%
%ADD25R,3.399740X3.199080*%
%ADD26R,1.924000X1.035000*%
%ADD27O,1.924000X1.035000*%
%ADD28R,0.679400X1.644600*%
%ADD29O,0.679400X1.644600*%
%ADD30O,1.644600X0.679400*%
%ADD31R,1.047700X1.449020*%
%ADD32R,2.099260X2.797760*%
%ADD33R,2.299920X1.398220*%
%ADD34R,1.924000X1.924000*%
%ADD35C,1.924000*%
%ADD36C,4.900000*%
G04 APERTURE END LIST*
D10*
D11*
X91135200Y-134010400D03*
D12*
X88138000Y-134010400D03*
X85140800Y-134010400D03*
X82143600Y-134010400D03*
X79146400Y-134010400D03*
X91135200Y-137007600D03*
X88138000Y-137007600D03*
X85140800Y-137007600D03*
X82143600Y-137007600D03*
X79146400Y-137007600D03*
D13*
X94140020Y-137949940D03*
X76141580Y-137949940D03*
D14*
X101384100Y-124388880D03*
D15*
X113880900Y-124388880D03*
X101384100Y-129387600D03*
X113880900Y-129387600D03*
D16*
X107632500Y-122389900D03*
X107632500Y-131386580D03*
D17*
X118694200Y-74739500D03*
X118694200Y-76415900D03*
D18*
X124561600Y-80408780D03*
X124561600Y-73312020D03*
D17*
X76009500Y-77190600D03*
X76009500Y-75514200D03*
D19*
X69456300Y-64490600D03*
X71132700Y-64490600D03*
X67081400Y-64490600D03*
X65405000Y-64490600D03*
X112649000Y-71894700D03*
X114325400Y-71894700D03*
X64389000Y-70916800D03*
X62712600Y-70916800D03*
D17*
X72796400Y-76987400D03*
X72796400Y-78663800D03*
D18*
X90576400Y-75430380D03*
X90576400Y-68333620D03*
D19*
X80987900Y-69532500D03*
X82664300Y-69532500D03*
D20*
X101193600Y-97256600D03*
X101193600Y-101854000D03*
D17*
X58318400Y-80429100D03*
X58318400Y-78752700D03*
D21*
X119634000Y-71767700D03*
X116103400Y-71767700D03*
D17*
X63093600Y-62471300D03*
X63093600Y-64147700D03*
D21*
X59575700Y-109626400D03*
X56045100Y-109626400D03*
X59575700Y-107391200D03*
X56045100Y-107391200D03*
X59575700Y-111912400D03*
X56045100Y-111912400D03*
D22*
X97030540Y-92707460D03*
D23*
X101028500Y-92707460D03*
X105026460Y-92707460D03*
X99029520Y-88709500D03*
X103027480Y-88709500D03*
X97030540Y-84711540D03*
X101028500Y-84711540D03*
X105026460Y-84711540D03*
D24*
X87330280Y-99507040D03*
X114726720Y-99507040D03*
X116227860Y-81409540D03*
X85829140Y-81409540D03*
D25*
X107612180Y-72694800D03*
X97315020Y-72694800D03*
D17*
X58318400Y-77190600D03*
X58318400Y-75514200D03*
X63093600Y-65709800D03*
X63093600Y-67386200D03*
X61937900Y-98831400D03*
X61937900Y-100507800D03*
X60159900Y-98831400D03*
X60159900Y-100507800D03*
X63754000Y-98793300D03*
X63754000Y-100469700D03*
X61925200Y-104317800D03*
X61925200Y-102641400D03*
X60147200Y-104317800D03*
X60147200Y-102641400D03*
X63754000Y-104317800D03*
X63754000Y-102641400D03*
D14*
X80835500Y-123167140D03*
D15*
X93332300Y-123167140D03*
X80835500Y-128165860D03*
X93332300Y-128165860D03*
D16*
X87083900Y-121168160D03*
X87083900Y-130164840D03*
D14*
X80810100Y-107993180D03*
D15*
X93306900Y-107993180D03*
X80810100Y-112991900D03*
X93306900Y-112991900D03*
D16*
X87058500Y-105994200D03*
X87058500Y-114990880D03*
D14*
X62928500Y-109931200D03*
D15*
X75425300Y-109931200D03*
X62928500Y-114929920D03*
X75425300Y-114929920D03*
D16*
X69176900Y-107932220D03*
X69176900Y-116928900D03*
D14*
X137579100Y-127876300D03*
D15*
X150075900Y-127876300D03*
X137579100Y-132875020D03*
X150075900Y-132875020D03*
D16*
X143827500Y-125877320D03*
X143827500Y-134874000D03*
D14*
X119392700Y-126047500D03*
D15*
X131889500Y-126047500D03*
X119392700Y-131046220D03*
X131889500Y-131046220D03*
D16*
X125641100Y-124048520D03*
X125641100Y-133045200D03*
D14*
X137579100Y-112361980D03*
D15*
X150075900Y-112361980D03*
X137579100Y-117360700D03*
X150075900Y-117360700D03*
D16*
X143827500Y-110363000D03*
X143827500Y-119359680D03*
D14*
X119392700Y-110533180D03*
D15*
X131889500Y-110533180D03*
X119392700Y-115531900D03*
X131889500Y-115531900D03*
D16*
X125641100Y-108534200D03*
X125641100Y-117530880D03*
D14*
X101384100Y-108864400D03*
D15*
X113880900Y-108864400D03*
X101384100Y-113863120D03*
X113880900Y-113863120D03*
D16*
X107632500Y-106865420D03*
X107632500Y-115862100D03*
D14*
X135674100Y-92052140D03*
D15*
X148170900Y-92052140D03*
X135674100Y-97050860D03*
X148170900Y-97050860D03*
D16*
X141922500Y-90053160D03*
X141922500Y-99049840D03*
D14*
X113423700Y-89217500D03*
D15*
X125920500Y-89217500D03*
X113423700Y-94216220D03*
X125920500Y-94216220D03*
D16*
X119672100Y-87218520D03*
X119672100Y-96215200D03*
D14*
X60642500Y-87693500D03*
D15*
X73139300Y-87693500D03*
X60642500Y-92692220D03*
X73139300Y-92692220D03*
D16*
X66890900Y-85694520D03*
X66890900Y-94691200D03*
D14*
X78168500Y-87693500D03*
D15*
X90665300Y-87693500D03*
X78168500Y-92692220D03*
X90665300Y-92692220D03*
D16*
X84416900Y-85694520D03*
X84416900Y-94691200D03*
D26*
X78036007Y-74323645D03*
D27*
X78036007Y-75593645D03*
X78036007Y-76863645D03*
X78036007Y-78133645D03*
X83878007Y-78133645D03*
X83878007Y-76863645D03*
X83878007Y-75593645D03*
X83878007Y-74323645D03*
D28*
X68966080Y-73400920D03*
D29*
X68465700Y-73400920D03*
X67965320Y-73400920D03*
X67467480Y-73400920D03*
X66967100Y-73400920D03*
X66466720Y-73400920D03*
X65968880Y-73400920D03*
X65468500Y-73400920D03*
X64968120Y-73400920D03*
X64470280Y-73400920D03*
X63969900Y-73400920D03*
X63469520Y-73400920D03*
D30*
X61671200Y-75199240D03*
X61671200Y-75699620D03*
X61671200Y-76200000D03*
X61671200Y-76697840D03*
X61671200Y-77198220D03*
X61671200Y-77698600D03*
X61671200Y-78196440D03*
X61671200Y-78696820D03*
X61671200Y-79197200D03*
X61671200Y-79695040D03*
X61671200Y-80195420D03*
X61671200Y-80695800D03*
D29*
X63469520Y-82494120D03*
X63969900Y-82494120D03*
X64470280Y-82494120D03*
X64968120Y-82494120D03*
X65468500Y-82494120D03*
X65968880Y-82494120D03*
X66466720Y-82494120D03*
X66967100Y-82494120D03*
X67467480Y-82494120D03*
X67965320Y-82494120D03*
X68465700Y-82494120D03*
X68966080Y-82494120D03*
D30*
X70764400Y-80695800D03*
X70764400Y-80195420D03*
X70764400Y-79695040D03*
X70764400Y-79197200D03*
X70764400Y-78696820D03*
X70764400Y-78196440D03*
X70764400Y-77698600D03*
X70764400Y-77198220D03*
X70764400Y-76697840D03*
X70764400Y-76200000D03*
X70764400Y-75699620D03*
X70764400Y-75199240D03*
D26*
X110759650Y-73594445D03*
D27*
X110759650Y-74864445D03*
X110759650Y-76134445D03*
X110759650Y-77404445D03*
X116601650Y-77404445D03*
X116601650Y-76134445D03*
X116601650Y-74864445D03*
X116601650Y-73594445D03*
D31*
X80771951Y-67661190D03*
X82671871Y-67661190D03*
X81721911Y-65365030D03*
D32*
X70815200Y-67538600D03*
X65735200Y-67538600D03*
D33*
X96824800Y-97790000D03*
X96824800Y-100787200D03*
D34*
X134213600Y-80518000D03*
D35*
X134213600Y-83058000D03*
X136753600Y-80518000D03*
X136753600Y-83058000D03*
X139293600Y-80518000D03*
X139293600Y-83058000D03*
X141833600Y-80518000D03*
X141833600Y-83058000D03*
D36*
X149967700Y-78886300D03*
X59076840Y-64487040D03*
X57114700Y-136941300D03*
X151063700Y-136941300D03*
D14*
X62928500Y-125112780D03*
D15*
X75425300Y-125112780D03*
X62928500Y-130111500D03*
X75425300Y-130111500D03*
D16*
X69176900Y-123113800D03*
X69176900Y-132110480D03*
M02*
